<svg width="24" height="24" viewBox="0 0 24 24" fill="none" xmlns="http://www.w3.org/2000/svg">
<path d="M12 3C12.2652 3 12.5195 3.10543 12.707 3.29297C12.8946 3.48051 13 3.73478 13 4V11H20C20.2652 11 20.5195 11.1054 20.707 11.293C20.8946 11.4805 21 11.7348 21 12C21 12.2652 20.8946 12.5195 20.707 12.707C20.5195 12.8946 20.2652 13 20 13H13V20C13 20.2652 12.8946 20.5195 12.707 20.707C12.5195 20.8946 12.2652 21 12 21C11.7348 21 11.4805 20.8946 11.293 20.707C11.1054 20.5195 11 20.2652 11 20V13H4C3.73478 13 3.48051 12.8946 3.29297 12.707C3.10543 12.5195 3 12.2652 3 12C3 11.7348 3.10543 11.4805 3.29297 11.293C3.48051 11.1054 3.73478 11 4 11H11V4C11 3.73478 11.1054 3.48051 11.293 3.29297C11.4805 3.10543 11.7348 3 12 3Z" fill="currentColor"/>
</svg>
