<svg width="24" height="24" viewBox="0 0 24 24" fill="none" xmlns="http://www.w3.org/2000/svg">
<path d="M18 12C18.0003 11.7452 18.0976 11.4998 18.2725 11.3145C18.4474 11.1291 18.687 11.0179 18.9414 11.0029C19.1958 10.988 19.4462 11.0708 19.6416 11.2344C19.837 11.3979 19.963 11.6298 19.9932 11.8828L20 12V20C19.9997 20.2548 19.9025 20.5002 19.7275 20.6855C19.5526 20.8709 19.313 20.9821 19.0586 20.9971C18.8042 21.012 18.5538 20.9292 18.3584 20.7656C18.163 20.6021 18.037 20.3702 18.0068 20.1172L18 20L18 12Z" fill="#B5BBC2"/>
<path d="M11 4C11 3.73478 11.1054 3.48051 11.293 3.29297C11.4805 3.10543 11.7348 3 12 3C12.2652 3 12.5195 3.10543 12.707 3.29297C12.8946 3.48051 13 3.73478 13 4L13 20C13 20.2652 12.8946 20.5195 12.707 20.707C12.5195 20.8946 12.2652 21 12 21C11.7348 21 11.4805 20.8946 11.293 20.707C11.1054 20.5195 11 20.2652 11 20L11 4Z" fill="#B5BBC2"/>
<path d="M4 8C4 7.73478 4.10543 7.48051 4.29297 7.29297C4.48051 7.10543 4.73478 7 5 7C5.26522 7 5.51949 7.10543 5.70703 7.29297C5.89457 7.4805 6 7.73478 6 8L6 20C6 20.2652 5.89457 20.5195 5.70703 20.707C5.5195 20.8946 5.26522 21 5 21C4.73478 21 4.48051 20.8946 4.29297 20.707C4.10543 20.5195 4 20.2652 4 20L4 8Z" fill="#B5BBC2"/>
</svg>
