<svg width="15" height="20" viewBox="0 0 15 20" fill="none" xmlns="http://www.w3.org/2000/svg">
<path d="M4.99997 13H1.89997C1.49997 13 1.20414 12.8208 1.01247 12.4625C0.820803 12.1041 0.841636 11.7583 1.07497 11.425L8.54997 0.674965C8.71664 0.441632 8.9333 0.279132 9.19997 0.187465C9.46664 0.0957983 9.74164 0.099965 10.025 0.199965C10.3083 0.299965 10.5166 0.474965 10.65 0.724965C10.7833 0.974965 10.8333 1.24163 10.8 1.52497L9.99997 7.99997H13.875C14.3083 7.99997 14.6125 8.19163 14.7875 8.57497C14.9625 8.9583 14.9083 9.31663 14.625 9.64997L6.39997 19.5C6.21664 19.7166 5.99164 19.8583 5.72497 19.925C5.4583 19.9916 5.19997 19.9666 4.94997 19.85C4.69997 19.7333 4.50414 19.5541 4.36247 19.3125C4.2208 19.0708 4.16664 18.8083 4.19997 18.525L4.99997 13Z" fill="#FFBC38"/>
</svg>
