<svg width="34" height="34" viewBox="0 0 34 34" fill="none" xmlns="http://www.w3.org/2000/svg">
<path fill-rule="evenodd" clip-rule="evenodd" d="M33.6668 12.833C33.6668 19.7366 28.0704 25.333 21.1668 25.333C18.2808 25.333 15.6231 24.3549 13.5074 22.7121C13.4277 22.8807 13.3181 23.0387 13.1787 23.1782L3.17867 33.1782C2.5278 33.8291 1.47253 33.8291 0.821652 33.1782C0.170778 32.5273 0.170778 31.472 0.821651 30.8212L10.8216 20.8212C10.9611 20.6817 11.1191 20.5722 11.2877 20.4925C9.64491 18.3767 8.66683 15.7191 8.66683 12.833C8.66683 5.92945 14.2633 0.333008 21.1668 0.333008C28.0704 0.333008 33.6668 5.92945 33.6668 12.833ZM30.3335 12.833C30.3335 7.7704 26.2294 3.66634 21.1668 3.66634C16.1042 3.66634 12.0002 7.7704 12.0002 12.833C12.0002 17.8956 16.1042 21.9997 21.1668 21.9997C26.2294 21.9997 30.3335 17.8956 30.3335 12.833ZM22.8335 8.66634C22.8335 7.74587 22.0873 6.99967 21.1668 6.99967C20.2464 6.99967 19.5002 7.74587 19.5002 8.66634V11.1663H17.0002C16.0797 11.1663 15.3335 11.9125 15.3335 12.833C15.3335 13.7535 16.0797 14.4997 17.0002 14.4997H19.5002V16.9997C19.5002 17.9201 20.2464 18.6663 21.1668 18.6663C22.0873 18.6663 22.8335 17.9201 22.8335 16.9997V14.4997H25.3335C26.254 14.4997 27.0002 13.7535 27.0002 12.833C27.0002 11.9125 26.254 11.1663 25.3335 11.1663H22.8335V8.66634Z" fill="white"/>
</svg>
