<svg width="54" height="54" viewBox="0 0 54 54" fill="none" xmlns="http://www.w3.org/2000/svg">
<path d="M27.0002 0.333008C41.7282 0.333008 53.6668 12.2717 53.6668 26.9997C53.6668 41.7277 41.7282 53.6663 27.0002 53.6663C12.2722 53.6663 0.333496 41.7277 0.333496 26.9997C0.333496 12.2717 12.2722 0.333008 27.0002 0.333008ZM18.9042 18.0663L18.7628 19.3997L18.6828 20.2877L18.5708 21.8877L18.5068 23.1143L18.4588 24.461L18.4322 25.925V27.4663L18.4588 28.9303L18.5068 30.2797L18.5708 31.5063L18.6828 33.1063L18.8722 35.053L18.9068 35.325C18.9658 35.8148 19.138 36.2841 19.4097 36.6959C19.6814 37.1076 20.0452 37.4505 20.4724 37.6973C20.8995 37.9441 21.3783 38.0881 21.8707 38.1179C22.3631 38.1477 22.8557 38.0625 23.3095 37.869L24.5255 37.3303L26.2615 36.5063L27.3015 35.9837L28.4482 35.3863L29.6908 34.7117L31.0188 33.9597L32.3335 33.1863L32.9495 32.813L34.0962 32.093L35.1308 31.4263L36.0428 30.8157L37.7842 29.589L38.2562 29.2397C38.6512 28.9434 38.9718 28.5592 39.1925 28.1175C39.4132 27.6758 39.528 27.1888 39.5277 26.695C39.5275 26.2012 39.4122 25.7143 39.191 25.2728C38.9698 24.8314 38.6488 24.4475 38.2535 24.1517L37.1708 23.3597L36.4375 22.845L35.5842 22.2637L34.0775 21.2823L32.9362 20.5677L31.6828 19.8157L30.3522 19.0477L29.0775 18.341L27.8855 17.7063L26.7922 17.1463L25.3522 16.445L24.1815 15.9063L23.5682 15.6343C23.4838 15.5985 23.3994 15.563 23.3148 15.5277C22.861 15.3327 22.368 15.2461 21.8749 15.2748C21.3819 15.3035 20.9022 15.4468 20.4742 15.6932C20.0461 15.9396 19.6813 16.2823 19.4088 16.6943C19.1363 17.1062 18.9635 17.576 18.9042 18.0663Z" fill="#FFBC38"/>
</svg>
