<svg width="40" height="40" viewBox="0 0 40 40" fill="none" xmlns="http://www.w3.org/2000/svg">
<rect width="40" height="40" rx="20" fill="#F93939"/>
<path fill-rule="evenodd" clip-rule="evenodd" d="M29.339 23.0721L26.2404 24.6987L26.8324 21.2507L24.3257 18.8054L27.7924 18.2987L29.339 15.1627L30.8857 18.3014L34.3524 18.8081L31.8457 21.2481L32.4377 24.6961" fill="white"/>
<path fill-rule="evenodd" clip-rule="evenodd" d="M17.3333 29.3333C22.488 29.3333 26.6667 25.1546 26.6667 20C26.6667 14.8453 22.488 10.6666 17.3333 10.6666C12.1787 10.6666 8 14.8453 8 20C8 25.1546 12.1787 29.3333 17.3333 29.3333ZM20 26.6666C23.68 26.6666 26.6667 23.68 26.6667 20C26.6667 16.32 23.68 13.3333 20 13.3333C16.32 13.3333 13.3333 16.32 13.3333 20C13.3333 23.68 16.32 26.6666 20 26.6666Z" fill="white"/>
</svg>
