<svg width="19" height="16" viewBox="0 0 19 16" fill="none" xmlns="http://www.w3.org/2000/svg">
<path d="M1.5 0C1.23478 0 0.98043 0.105357 0.792893 0.292893C0.605357 0.48043 0.5 0.734784 0.5 1C0.5 1.26522 0.605357 1.51957 0.792893 1.70711C0.98043 1.89464 1.23478 2 1.5 2H17.5C17.7652 2 18.0196 1.89464 18.2071 1.70711C18.3946 1.51957 18.5 1.26522 18.5 1C18.5 0.734784 18.3946 0.48043 18.2071 0.292893C18.0196 0.105357 17.7652 0 17.5 0H1.5ZM0.5 8C0.5 7.73478 0.605357 7.48043 0.792893 7.29289C0.98043 7.10536 1.23478 7 1.5 7H4.5C4.76522 7 5.01957 7.10536 5.20711 7.29289C5.39464 7.48043 5.5 7.73478 5.5 8C5.5 8.26522 5.39464 8.51957 5.20711 8.70711C5.01957 8.89464 4.76522 9 4.5 9H1.5C1.23478 9 0.98043 8.89464 0.792893 8.70711C0.605357 8.51957 0.5 8.26522 0.5 8ZM0.5 15C0.5 14.7348 0.605357 14.4804 0.792893 14.2929C0.98043 14.1054 1.23478 14 1.5 14H5.5C5.76522 14 6.01957 14.1054 6.20711 14.2929C6.39464 14.4804 6.5 14.7348 6.5 15C6.5 15.2652 6.39464 15.5196 6.20711 15.7071C6.01957 15.8946 5.76522 16 5.5 16H1.5C1.23478 16 0.98043 15.8946 0.792893 15.7071C0.605357 15.5196 0.5 15.2652 0.5 15ZM7.5 10C7.50019 9.22041 7.68267 8.45167 8.03286 7.75516C8.38306 7.05866 8.89127 6.45369 9.51691 5.98857C10.1426 5.52346 10.8683 5.21108 11.6361 5.07639C12.404 4.9417 13.1927 4.98843 13.9393 5.21285C14.6859 5.43726 15.3697 5.83315 15.936 6.36889C16.5024 6.90462 16.9356 7.56537 17.2011 8.29835C17.4666 9.03134 17.557 9.81625 17.4652 10.5904C17.3733 11.3646 17.1017 12.1065 16.672 12.757L18.207 14.293C18.3892 14.4816 18.49 14.7342 18.4877 14.9964C18.4854 15.2586 18.3802 15.5094 18.1948 15.6948C18.0094 15.8802 17.7586 15.9854 17.4964 15.9877C17.2342 15.99 16.9816 15.8892 16.793 15.707L15.257 14.172C14.5034 14.6701 13.6288 14.9548 12.7264 14.9957C11.8239 15.0366 10.9272 14.8322 10.1316 14.4043C9.33602 13.9764 8.67121 13.3409 8.20784 12.5654C7.74447 11.7899 7.49986 10.9034 7.5 10ZM12.5 7C12.106 7 11.7159 7.0776 11.3519 7.22836C10.988 7.37913 10.6573 7.6001 10.3787 7.87868C10.1001 8.15726 9.87913 8.48797 9.72836 8.85195C9.5776 9.21593 9.5 9.60603 9.5 10C9.5 10.394 9.5776 10.7841 9.72836 11.1481C9.87913 11.512 10.1001 11.8427 10.3787 12.1213C10.6573 12.3999 10.988 12.6209 11.3519 12.7716C11.7159 12.9224 12.106 13 12.5 13C13.2956 13 14.0587 12.6839 14.6213 12.1213C15.1839 11.5587 15.5 10.7956 15.5 10C15.5 9.20435 15.1839 8.44129 14.6213 7.87868C14.0587 7.31607 13.2956 7 12.5 7Z" fill="white"/>
</svg>
