<svg width="24" height="24" viewBox="0 0 24 24" fill="none" xmlns="http://www.w3.org/2000/svg">
<path d="M14.2803 2C14.6999 2.00017 15.1088 2.13246 15.4492 2.37793C15.7897 2.62345 16.0441 2.96991 16.1768 3.36816L16.7197 5H20C20.2652 5 20.5195 5.10543 20.707 5.29297C20.8946 5.48051 21 5.73478 21 6C21 6.26522 20.8946 6.5195 20.707 6.70703C20.5195 6.89457 20.2652 7 20 7L19.9971 7.07129L19.1299 19.2139C19.0758 19.9705 18.7368 20.6784 18.1816 21.1953C17.6265 21.7122 16.8962 21.9999 16.1377 22H7.8623C7.1038 21.9999 6.37349 21.7122 5.81836 21.1953C5.26322 20.6784 4.92423 19.9705 4.87012 19.2139L4.00293 7.07031C4.00112 7.04702 4.00019 7.02336 4 7C3.73478 7 3.48051 6.89457 3.29297 6.70703C3.10543 6.5195 3 6.26522 3 6C3 5.73478 3.10543 5.48051 3.29297 5.29297C3.48051 5.10543 3.73478 5 4 5H7.28027L7.82324 3.36816C7.95589 2.96991 8.21032 2.62345 8.55078 2.37793C8.89137 2.13245 9.30088 1.99996 9.7207 2H14.2803ZM6.86523 19.0713C6.88325 19.3233 6.99584 19.5592 7.18066 19.7314C7.36565 19.9038 7.60946 19.9999 7.8623 20H16.1377C16.3905 19.9999 16.6344 19.9038 16.8193 19.7314C17.0042 19.5592 17.1167 19.3233 17.1348 19.0713L17.9971 7H6.00293L6.86523 19.0713ZM14 10C14.2652 10 14.5195 10.1054 14.707 10.293C14.8946 10.4805 15 10.7348 15 11V16C15 16.2652 14.8946 16.5195 14.707 16.707C14.5195 16.8946 14.2652 17 14 17C13.7348 17 13.4805 16.8946 13.293 16.707C13.1054 16.5195 13 16.2652 13 16V11C13 10.7348 13.1054 10.4805 13.293 10.293C13.4805 10.1054 13.7348 10 14 10ZM10 10C10.2449 10 10.481 10.0902 10.6641 10.2529C10.8471 10.4157 10.9645 10.6396 10.9932 10.8828L11 11V16C10.9997 16.2548 10.9025 16.5002 10.7275 16.6855C10.5526 16.8709 10.313 16.9821 10.0586 16.9971C9.80419 17.012 9.55384 16.9292 9.3584 16.7656C9.16299 16.6021 9.03697 16.3702 9.00684 16.1172L9 16V11C9 10.7348 9.10543 10.4805 9.29297 10.293C9.4805 10.1054 9.73478 10 10 10ZM9.38672 5H14.6133L14.2803 4H9.71973L9.38672 5Z" fill="currentColor"/>
</svg>
