<svg width="180" height="63" viewBox="0 0 180 63" fill="none" xmlns="http://www.w3.org/2000/svg">
<path d="M34.7359 10.7353C34.431 10.659 34.1442 10.5234 33.8918 10.3362C33.6394 10.1491 33.4262 9.91397 33.2646 9.64437C33.1029 9.37477 32.9959 9.07595 32.9497 8.76497C32.9034 8.45399 32.9189 8.13694 32.9951 7.83192C33.0713 7.52691 33.2067 7.2399 33.3938 6.98728C33.5808 6.73466 33.8158 6.52138 34.0852 6.35962C34.3546 6.19786 34.6532 6.09079 34.964 6.04451C35.2747 5.99824 35.5916 6.01367 35.8964 6.08992C42.7217 7.80434 48.6853 11.9565 52.6642 17.7647C56.6432 23.5729 58.363 30.6363 57.4999 37.6251C56.6367 44.6139 53.2502 51.0458 47.9779 55.7098C42.7056 60.3739 35.9113 62.9483 28.8742 62.9483C21.8372 62.9483 15.0429 60.3739 9.77057 55.7098C4.49828 51.0458 1.11175 44.6139 0.248617 37.6251C-0.614513 30.6363 1.1053 23.5729 5.08425 17.7647C9.0632 11.9565 15.0268 7.80434 21.8521 6.08992C22.1569 6.01367 22.4737 5.99824 22.7845 6.04451C23.0953 6.09079 23.3939 6.19786 23.6633 6.35962C23.9327 6.52138 24.1676 6.73466 24.3547 6.98728C24.5417 7.2399 24.6772 7.52691 24.7534 7.83192C24.8296 8.13694 24.845 8.45399 24.7988 8.76497C24.7525 9.07595 24.6455 9.37477 24.4839 9.64437C24.3223 9.91397 24.1091 10.1491 23.8567 10.3362C23.6042 10.5234 23.3174 10.659 23.0126 10.7353C17.3096 12.1664 12.3262 15.6348 9.0009 20.4871C5.67559 25.3394 4.23784 31.2409 4.95837 37.0803C5.67889 42.9197 8.50799 48.2939 12.9129 52.1911C17.3178 56.0883 22.9946 58.2394 28.8742 58.2394C34.7539 58.2394 40.4306 56.0883 44.8356 52.1911C49.2405 48.2939 52.0696 42.9197 52.7901 37.0803C53.5106 31.2409 52.0729 25.3394 48.7476 20.4871C45.4223 15.6348 40.4389 12.1664 34.7359 10.7353Z" fill="#FFBC38"/>
<path d="M26.5317 2.40292C26.5317 1.76563 26.7847 1.15444 27.2351 0.7038C27.6854 0.253164 28.2961 0 28.933 0C29.5698 0 30.1806 0.253164 30.6309 0.7038C31.0813 1.15444 31.3343 1.76563 31.3343 2.40292V35.1658C31.3343 35.803 31.0813 36.4142 30.6309 36.8649C30.1806 37.3155 29.5698 37.5687 28.933 37.5687C28.2961 37.5687 27.6854 37.3155 27.2351 36.8649C26.7847 36.4142 26.5317 35.803 26.5317 35.1658V2.40292Z" fill="#FFBC38"/>
<path d="M172.863 19.2187C172.202 20.819 171.627 22.2495 171.174 23.7035H171.117C170.575 22.1881 170.032 20.819 169.367 19.247L167.079 13.8463H162.111L168.673 26.8759V35.8172H173.136V26.7343L180.005 13.8463H175.089L172.863 19.2187ZM152.652 23.5619V26.909H155.992V32.2766C155.254 32.5157 154.48 32.6212 153.704 32.5882C149.878 32.5882 147.02 30.02 147.02 24.9309C147.02 19.6199 150.152 17.2217 154.28 17.2217C155.795 17.169 157.304 17.441 158.705 18.0196L159.649 14.5356C157.92 13.8731 156.078 13.5618 154.228 13.6197C147.572 13.6197 142.359 17.59 142.359 25.0206C142.359 28.5046 143.505 31.5024 145.491 33.3624C147.477 35.2224 150.129 36.0438 153.653 36.0438C155.897 36.0285 158.126 35.6621 160.257 34.958V23.5619H152.652ZM129.428 17.0754C130.1 16.9322 130.788 16.8751 131.475 16.9054C133.103 16.9054 135.329 17.4483 135.329 20.2761C135.329 22.3628 133.796 23.7601 131.263 23.7601H129.428V17.0754ZM125.017 35.8172H129.447V26.909H130.951C133.06 26.909 133.994 27.7965 134.598 30.6243C135.141 33.2774 135.712 35.1941 136.042 35.8172H140.585C140.113 34.9911 139.528 32.3616 138.868 29.7604C138.325 27.5321 137.419 26.045 135.796 25.4455V25.3605C136.942 24.9744 137.939 24.2421 138.651 23.2645C139.362 22.287 139.753 21.1125 139.769 19.9032C139.788 14.021 133.886 13.6905 130.966 13.6905C128.967 13.6922 126.972 13.85 124.998 14.1626L125.017 35.8172ZM113.091 32.2766V26.1395H120.639V22.7027H113.091V17.3917H121.111V13.8463H108.614V35.8172H121.563V32.2766H113.091ZM100.013 13.8463V20.4555C100.013 24.0292 100.136 27.1403 100.405 29.9398H100.344C99.3314 27.4834 98.1751 25.0889 96.881 22.7688L92.0171 13.8463H87.1957V35.8172H91.234V29.0758C91.234 25.1622 91.1444 22.0748 90.9604 19.3603H91.083C92.1285 21.8828 93.3145 24.3446 94.6354 26.7343L99.6077 35.8172H104.066V13.8463H100.013ZM75.2555 32.2577V26.1206H82.8037V22.7027H75.2555V17.3917H83.2754V13.8463H70.8115V35.8172H83.7613V32.2766L75.2555 32.2577Z" fill="#061B31"/>
<path d="M123.03 46.6469H126.432C127.264 46.7044 128.088 46.4503 128.743 45.9341C129.02 45.6722 129.236 45.3523 129.375 44.9972C129.513 44.6422 129.572 44.2608 129.545 43.8805C129.563 43.5025 129.501 43.125 129.362 42.7728C129.224 42.4206 129.013 42.1015 128.743 41.8363C128.138 41.2991 127.349 41.0152 126.54 41.0432H123.049L123.03 46.6469ZM123.03 48.1953V53.7801H121.143V39.4948H126.432C128.004 39.4948 129.228 39.8945 130.102 40.6939C130.542 41.093 130.89 41.5839 131.12 42.1321C131.35 42.6803 131.456 43.2723 131.433 43.8663C131.469 44.464 131.371 45.0623 131.145 45.6171C130.92 46.1719 130.573 46.669 130.13 47.0718C129.269 47.824 128.03 48.1985 126.413 48.1953H123.03ZM118.917 39.4948V49.2151C118.937 49.8228 118.834 50.4283 118.617 50.9959C118.399 51.5635 118.069 52.0816 117.648 52.5197C116.724 53.4014 115.504 53.9064 114.227 53.9359H113.756C112.394 54.005 111.057 53.5507 110.019 52.666C109.547 52.2211 109.176 51.6796 108.932 51.0784C108.688 50.4772 108.576 49.8304 108.604 49.182V39.4948H110.491V49.1679C110.449 49.6256 110.502 50.0872 110.648 50.5231C110.794 50.9591 111.029 51.3597 111.339 51.6995C111.648 52.0393 112.025 52.3107 112.445 52.4964C112.865 52.6822 113.32 52.7781 113.779 52.7781C114.239 52.7781 114.693 52.6822 115.113 52.4964C115.534 52.3107 115.91 52.0393 116.22 51.6995C116.529 51.3597 116.765 50.9591 116.911 50.5231C117.057 50.0872 117.11 49.6256 117.067 49.1679V39.4948H118.917ZM104.924 46.1748C104.924 44.4847 104.585 43.1881 103.905 42.2848C103.578 41.8409 103.146 41.4846 102.648 41.2475C102.151 41.0103 101.602 40.8996 101.051 40.9252C100.508 40.9029 99.9669 41.0154 99.4772 41.2526C98.9875 41.4898 98.564 41.8444 98.2442 42.2848C97.5617 43.1881 97.2095 44.447 97.1875 46.0615V47.1143C97.1875 48.7571 97.5319 50.0459 98.2206 50.9807C98.5545 51.4099 98.9805 51.7585 99.4671 52.0008C99.9537 52.2431 100.488 52.3729 101.032 52.3806C101.575 52.3883 102.114 52.2737 102.607 52.0453C103.1 51.8169 103.536 51.4805 103.882 51.0609C104.552 50.1734 104.896 48.9082 104.915 47.2512L104.924 46.1748ZM106.811 47.119C106.841 48.3778 106.601 49.6284 106.108 50.7871C105.694 51.7646 104.997 52.5962 104.108 53.1759C103.442 53.6071 102.69 53.8894 101.905 54.0034C101.119 54.1173 100.319 54.0603 99.5573 53.8362C98.7959 53.6122 98.0918 53.2263 97.4931 52.7049C96.8944 52.1836 96.4152 51.5391 96.0883 50.8154C95.5868 49.6967 95.3356 48.4819 95.3523 47.2559V46.1984C95.3268 44.9466 95.5697 43.7039 96.0647 42.5539C96.4771 41.5689 97.1766 40.7311 98.0721 40.15C98.9675 39.5689 100.017 39.2715 101.084 39.2965C102.14 39.2828 103.178 39.571 104.075 40.1274C104.972 40.7078 105.674 41.5451 106.09 42.5303C106.581 43.6894 106.82 44.9397 106.793 46.1984L106.811 47.119ZM86.1058 46.4864H88.9977C89.8059 46.5297 90.6013 46.2705 91.2292 45.7594C91.5026 45.5169 91.7185 45.2166 91.8613 44.8801C92.0041 44.5437 92.0702 44.1796 92.0547 43.8144C92.0785 43.4384 92.0204 43.0617 91.8843 42.7104C91.7483 42.3591 91.5376 42.0415 91.2669 41.7797C90.6215 41.268 89.8102 41.0125 88.9883 41.0621H86.1058V46.4864ZM89.4553 48.0348H86.1058V53.799H84.2188V39.4948H88.9364C90.5498 39.4948 91.767 39.863 92.6491 40.5995C93.5313 41.3359 93.9465 42.3981 93.9465 43.8002C93.9632 44.6329 93.7118 45.4489 93.2294 46.1276C92.7206 46.8086 92.0236 47.3256 91.2244 47.6147L94.5786 53.6621V53.7801H92.5548L89.4553 48.0348ZM81.8128 51.9296C81.3089 52.6384 80.6038 53.1795 79.789 53.4827C78.8228 53.8454 77.7967 54.0216 76.765 54.002C75.6759 54.0199 74.603 53.7356 73.6655 53.1806C72.7538 52.6257 72.0254 51.8146 71.5709 50.8485C71.0597 49.7522 70.8002 48.5553 70.8114 47.3456V46.0804C70.8114 43.9277 71.313 42.2581 72.3163 41.0716C73.3211 39.8866 74.727 39.2965 76.5621 39.2965C77.8585 39.2336 79.1344 39.639 80.1569 40.439C81.1039 41.2694 81.7007 42.4285 81.827 43.6822H79.9399C79.5877 41.7939 78.4633 40.8497 76.5669 40.8497C76.0163 40.8154 75.4659 40.9188 74.9652 41.1503C74.4645 41.3819 74.0292 41.7345 73.6986 42.1762C73.0475 43.0638 72.722 44.3478 72.7126 46.0285V47.2087C72.6411 48.569 73.0282 49.914 73.8118 51.0279C74.1562 51.4864 74.6064 51.8547 75.124 52.1013C75.6415 52.3479 76.211 52.4655 76.7839 52.4441C77.4085 52.4562 78.0315 52.3766 78.6332 52.2081C79.136 52.0715 79.5915 51.7987 79.9494 51.4197V48.2237H76.6471V46.6705H81.8364L81.8128 51.9296Z" fill="#061B31"/>
</svg>
