<svg width="0" height="0" class="hidden">
  <symbol fill="none" xmlns="http://www.w3.org/2000/svg" viewBox="0 0 14 8" id="arrow">
    <path fill-rule="evenodd" clip-rule="evenodd" d="M7.70685 7.707C7.51933 7.89447 7.26502 7.99979 6.99985 7.99979C6.73469 7.99979 6.48038 7.89447 6.29285 7.707L0.635855 2.05C0.540345 1.95775 0.464162 1.84741 0.411753 1.7254C0.359344 1.6034 0.331758 1.47218 0.330604 1.3394C0.32945 1.20662 0.354752 1.07494 0.405033 0.952046C0.455314 0.82915 0.529567 0.717497 0.62346 0.623604C0.717353 0.529712 0.829004 0.455459 0.951901 0.405178C1.0748 0.354897 1.20648 0.329595 1.33926 0.330749C1.47204 0.331903 1.60325 0.359489 1.72526 0.411898C1.84726 0.464307 1.95761 0.540489 2.04985 0.635999L6.99985 5.586L11.9499 0.635999C12.1385 0.453841 12.3911 0.353047 12.6533 0.355325C12.9155 0.357604 13.1663 0.462772 13.3517 0.648181C13.5371 0.833589 13.6423 1.0844 13.6445 1.3466C13.6468 1.6088 13.546 1.8614 13.3639 2.05L7.70685 7.707Z" fill="currentColor"></path>
  </symbol>
  <symbol fill="none" xmlns="http://www.w3.org/2000/svg" viewBox="0 0 19 16" id="catalogue">
    <path d="M1.5 0C1.23478 0 0.98043 0.105357 0.792893 0.292893C0.605357 0.48043 0.5 0.734784 0.5 1C0.5 1.26522 0.605357 1.51957 0.792893 1.70711C0.98043 1.89464 1.23478 2 1.5 2H17.5C17.7652 2 18.0196 1.89464 18.2071 1.70711C18.3946 1.51957 18.5 1.26522 18.5 1C18.5 0.734784 18.3946 0.48043 18.2071 0.292893C18.0196 0.105357 17.7652 0 17.5 0H1.5ZM0.5 8C0.5 7.73478 0.605357 7.48043 0.792893 7.29289C0.98043 7.10536 1.23478 7 1.5 7H4.5C4.76522 7 5.01957 7.10536 5.20711 7.29289C5.39464 7.48043 5.5 7.73478 5.5 8C5.5 8.26522 5.39464 8.51957 5.20711 8.70711C5.01957 8.89464 4.76522 9 4.5 9H1.5C1.23478 9 0.98043 8.89464 0.792893 8.70711C0.605357 8.51957 0.5 8.26522 0.5 8ZM0.5 15C0.5 14.7348 0.605357 14.4804 0.792893 14.2929C0.98043 14.1054 1.23478 14 1.5 14H5.5C5.76522 14 6.01957 14.1054 6.20711 14.2929C6.39464 14.4804 6.5 14.7348 6.5 15C6.5 15.2652 6.39464 15.5196 6.20711 15.7071C6.01957 15.8946 5.76522 16 5.5 16H1.5C1.23478 16 0.98043 15.8946 0.792893 15.7071C0.605357 15.5196 0.5 15.2652 0.5 15ZM7.5 10C7.50019 9.22041 7.68267 8.45167 8.03286 7.75516C8.38306 7.05866 8.89127 6.45369 9.51691 5.98857C10.1426 5.52346 10.8683 5.21108 11.6361 5.07639C12.404 4.9417 13.1927 4.98843 13.9393 5.21285C14.6859 5.43726 15.3697 5.83315 15.936 6.36889C16.5024 6.90462 16.9356 7.56537 17.2011 8.29835C17.4666 9.03134 17.557 9.81625 17.4652 10.5904C17.3733 11.3646 17.1017 12.1065 16.672 12.757L18.207 14.293C18.3892 14.4816 18.49 14.7342 18.4877 14.9964C18.4854 15.2586 18.3802 15.5094 18.1948 15.6948C18.0094 15.8802 17.7586 15.9854 17.4964 15.9877C17.2342 15.99 16.9816 15.8892 16.793 15.707L15.257 14.172C14.5034 14.6701 13.6288 14.9548 12.7264 14.9957C11.8239 15.0366 10.9272 14.8322 10.1316 14.4043C9.33602 13.9764 8.67121 13.3409 8.20784 12.5654C7.74447 11.7899 7.49986 10.9034 7.5 10ZM12.5 7C12.106 7 11.7159 7.0776 11.3519 7.22836C10.988 7.37913 10.6573 7.6001 10.3787 7.87868C10.1001 8.15726 9.87913 8.48797 9.72836 8.85195C9.5776 9.21593 9.5 9.60603 9.5 10C9.5 10.394 9.5776 10.7841 9.72836 11.1481C9.87913 11.512 10.1001 11.8427 10.3787 12.1213C10.6573 12.3999 10.988 12.6209 11.3519 12.7716C11.7159 12.9224 12.106 13 12.5 13C13.2956 13 14.0587 12.6839 14.6213 12.1213C15.1839 11.5587 15.5 10.7956 15.5 10C15.5 9.20435 15.1839 8.44129 14.6213 7.87868C14.0587 7.31607 13.2956 7 12.5 7Z" fill="currentColor"></path>
  </symbol>
  <symbol fill="none" xmlns="http://www.w3.org/2000/svg" viewBox="0 0 15 20" id="energy">
    <path d="M4.99997 13H1.89997C1.49997 13 1.20414 12.8208 1.01247 12.4625C0.820803 12.1041 0.841636 11.7583 1.07497 11.425L8.54997 0.674965C8.71664 0.441632 8.9333 0.279132 9.19997 0.187465C9.46664 0.0957983 9.74164 0.099965 10.025 0.199965C10.3083 0.299965 10.5166 0.474965 10.65 0.724965C10.7833 0.974965 10.8333 1.24163 10.8 1.52497L9.99997 7.99997H13.875C14.3083 7.99997 14.6125 8.19163 14.7875 8.57497C14.9625 8.9583 14.9083 9.31663 14.625 9.64997L6.39997 19.5C6.21664 19.7166 5.99164 19.8583 5.72497 19.925C5.4583 19.9916 5.19997 19.9666 4.94997 19.85C4.69997 19.7333 4.50414 19.5541 4.36247 19.3125C4.2208 19.0708 4.16664 18.8083 4.19997 18.525L4.99997 13Z" fill="#FFBC38"></path>
  </symbol>
  <symbol fill="none" xmlns="http://www.w3.org/2000/svg" viewBox="0 0 180 63" id="logo">
    <path class="svg-yellow" d="M34.7359 10.7353C34.431 10.659 34.1442 10.5234 33.8918 10.3362C33.6394 10.1491 33.4262 9.91397 33.2646 9.64437C33.1029 9.37477 32.9959 9.07595 32.9497 8.76497C32.9034 8.45399 32.9189 8.13694 32.9951 7.83192C33.0713 7.52691 33.2067 7.2399 33.3938 6.98728C33.5808 6.73466 33.8158 6.52138 34.0852 6.35962C34.3546 6.19786 34.6532 6.09079 34.964 6.04451C35.2747 5.99824 35.5916 6.01367 35.8964 6.08992C42.7217 7.80434 48.6853 11.9565 52.6642 17.7647C56.6432 23.5729 58.363 30.6363 57.4999 37.6251C56.6367 44.6139 53.2502 51.0458 47.9779 55.7098C42.7056 60.3739 35.9113 62.9483 28.8742 62.9483C21.8372 62.9483 15.0429 60.3739 9.77057 55.7098C4.49828 51.0458 1.11175 44.6139 0.248617 37.6251C-0.614513 30.6363 1.1053 23.5729 5.08425 17.7647C9.0632 11.9565 15.0268 7.80434 21.8521 6.08992C22.1569 6.01367 22.4737 5.99824 22.7845 6.04451C23.0953 6.09079 23.3939 6.19786 23.6633 6.35962C23.9327 6.52138 24.1676 6.73466 24.3547 6.98728C24.5417 7.2399 24.6772 7.52691 24.7534 7.83192C24.8296 8.13694 24.845 8.45399 24.7988 8.76497C24.7525 9.07595 24.6455 9.37477 24.4839 9.64437C24.3223 9.91397 24.1091 10.1491 23.8567 10.3362C23.6042 10.5234 23.3174 10.659 23.0126 10.7353C17.3096 12.1664 12.3262 15.6348 9.0009 20.4871C5.67559 25.3394 4.23784 31.2409 4.95837 37.0803C5.67889 42.9197 8.50799 48.2939 12.9129 52.1911C17.3178 56.0883 22.9946 58.2394 28.8742 58.2394C34.7539 58.2394 40.4306 56.0883 44.8356 52.1911C49.2405 48.2939 52.0696 42.9197 52.7901 37.0803C53.5106 31.2409 52.0729 25.3394 48.7476 20.4871C45.4223 15.6348 40.4389 12.1664 34.7359 10.7353Z"></path>
    <path class="svg-yellow" d="M26.5317 2.40292C26.5317 1.76563 26.7847 1.15444 27.2351 0.7038C27.6854 0.253164 28.2961 0 28.933 0C29.5698 0 30.1806 0.253164 30.6309 0.7038C31.0813 1.15444 31.3343 1.76563 31.3343 2.40292V35.1658C31.3343 35.803 31.0813 36.4142 30.6309 36.8649C30.1806 37.3155 29.5698 37.5687 28.933 37.5687C28.2961 37.5687 27.6854 37.3155 27.2351 36.8649C26.7847 36.4142 26.5317 35.803 26.5317 35.1658V2.40292Z"></path>
    <path class="svg-dark-blue" d="M172.863 19.2187C172.202 20.819 171.627 22.2495 171.174 23.7035H171.117C170.575 22.1881 170.032 20.819 169.367 19.247L167.079 13.8463H162.111L168.673 26.8759V35.8172H173.136V26.7343L180.005 13.8463H175.089L172.863 19.2187ZM152.652 23.5619V26.909H155.992V32.2766C155.254 32.5157 154.48 32.6212 153.704 32.5882C149.878 32.5882 147.02 30.02 147.02 24.9309C147.02 19.6199 150.152 17.2217 154.28 17.2217C155.795 17.169 157.304 17.441 158.705 18.0196L159.649 14.5356C157.92 13.8731 156.078 13.5618 154.228 13.6197C147.572 13.6197 142.359 17.59 142.359 25.0206C142.359 28.5046 143.505 31.5024 145.491 33.3624C147.477 35.2224 150.129 36.0438 153.653 36.0438C155.897 36.0285 158.126 35.6621 160.257 34.958V23.5619H152.652ZM129.428 17.0754C130.1 16.9322 130.788 16.8751 131.475 16.9054C133.103 16.9054 135.329 17.4483 135.329 20.2761C135.329 22.3628 133.796 23.7601 131.263 23.7601H129.428V17.0754ZM125.017 35.8172H129.447V26.909H130.951C133.06 26.909 133.994 27.7965 134.598 30.6243C135.141 33.2774 135.712 35.1941 136.042 35.8172H140.585C140.113 34.9911 139.528 32.3616 138.868 29.7604C138.325 27.5321 137.419 26.045 135.796 25.4455V25.3605C136.942 24.9744 137.939 24.2421 138.651 23.2645C139.362 22.287 139.753 21.1125 139.769 19.9032C139.788 14.021 133.886 13.6905 130.966 13.6905C128.967 13.6922 126.972 13.85 124.998 14.1626L125.017 35.8172ZM113.091 32.2766V26.1395H120.639V22.7027H113.091V17.3917H121.111V13.8463H108.614V35.8172H121.563V32.2766H113.091ZM100.013 13.8463V20.4555C100.013 24.0292 100.136 27.1403 100.405 29.9398H100.344C99.3314 27.4834 98.1751 25.0889 96.881 22.7688L92.0171 13.8463H87.1957V35.8172H91.234V29.0758C91.234 25.1622 91.1444 22.0748 90.9604 19.3603H91.083C92.1285 21.8828 93.3145 24.3446 94.6354 26.7343L99.6077 35.8172H104.066V13.8463H100.013ZM75.2555 32.2577V26.1206H82.8037V22.7027H75.2555V17.3917H83.2754V13.8463H70.8115V35.8172H83.7613V32.2766L75.2555 32.2577Z"></path>
    <path class="svg-dark-blue" d="M123.03 46.6469H126.432C127.264 46.7044 128.088 46.4503 128.743 45.9341C129.02 45.6722 129.236 45.3523 129.375 44.9972C129.513 44.6422 129.572 44.2608 129.545 43.8805C129.563 43.5025 129.501 43.125 129.362 42.7728C129.224 42.4206 129.013 42.1015 128.743 41.8363C128.138 41.2991 127.349 41.0152 126.54 41.0432H123.049L123.03 46.6469ZM123.03 48.1953V53.7801H121.143V39.4948H126.432C128.004 39.4948 129.228 39.8945 130.102 40.6939C130.542 41.093 130.89 41.5839 131.12 42.1321C131.35 42.6803 131.456 43.2723 131.433 43.8663C131.469 44.464 131.371 45.0623 131.145 45.6171C130.92 46.1719 130.573 46.669 130.13 47.0718C129.269 47.824 128.03 48.1985 126.413 48.1953H123.03ZM118.917 39.4948V49.2151C118.937 49.8228 118.834 50.4283 118.617 50.9959C118.399 51.5635 118.069 52.0816 117.648 52.5197C116.724 53.4014 115.504 53.9064 114.227 53.9359H113.756C112.394 54.005 111.057 53.5507 110.019 52.666C109.547 52.2211 109.176 51.6796 108.932 51.0784C108.688 50.4772 108.576 49.8304 108.604 49.182V39.4948H110.491V49.1679C110.449 49.6256 110.502 50.0872 110.648 50.5231C110.794 50.9591 111.029 51.3597 111.339 51.6995C111.648 52.0393 112.025 52.3107 112.445 52.4964C112.865 52.6822 113.32 52.7781 113.779 52.7781C114.239 52.7781 114.693 52.6822 115.113 52.4964C115.534 52.3107 115.91 52.0393 116.22 51.6995C116.529 51.3597 116.765 50.9591 116.911 50.5231C117.057 50.0872 117.11 49.6256 117.067 49.1679V39.4948H118.917ZM104.924 46.1748C104.924 44.4847 104.585 43.1881 103.905 42.2848C103.578 41.8409 103.146 41.4846 102.648 41.2475C102.151 41.0103 101.602 40.8996 101.051 40.9252C100.508 40.9029 99.9669 41.0154 99.4772 41.2526C98.9875 41.4898 98.564 41.8444 98.2442 42.2848C97.5617 43.1881 97.2095 44.447 97.1875 46.0615V47.1143C97.1875 48.7571 97.5319 50.0459 98.2206 50.9807C98.5545 51.4099 98.9805 51.7585 99.4671 52.0008C99.9537 52.2431 100.488 52.3729 101.032 52.3806C101.575 52.3883 102.114 52.2737 102.607 52.0453C103.1 51.8169 103.536 51.4805 103.882 51.0609C104.552 50.1734 104.896 48.9082 104.915 47.2512L104.924 46.1748ZM106.811 47.119C106.841 48.3778 106.601 49.6284 106.108 50.7871C105.694 51.7646 104.997 52.5962 104.108 53.1759C103.442 53.6071 102.69 53.8894 101.905 54.0034C101.119 54.1173 100.319 54.0603 99.5573 53.8362C98.7959 53.6122 98.0918 53.2263 97.4931 52.7049C96.8944 52.1836 96.4152 51.5391 96.0883 50.8154C95.5868 49.6967 95.3356 48.4819 95.3523 47.2559V46.1984C95.3268 44.9466 95.5697 43.7039 96.0647 42.5539C96.4771 41.5689 97.1766 40.7311 98.0721 40.15C98.9675 39.5689 100.017 39.2715 101.084 39.2965C102.14 39.2828 103.178 39.571 104.075 40.1274C104.972 40.7078 105.674 41.5451 106.09 42.5303C106.581 43.6894 106.82 44.9397 106.793 46.1984L106.811 47.119ZM86.1058 46.4864H88.9977C89.8059 46.5297 90.6013 46.2705 91.2292 45.7594C91.5026 45.5169 91.7185 45.2166 91.8613 44.8801C92.0041 44.5437 92.0702 44.1796 92.0547 43.8144C92.0785 43.4384 92.0204 43.0617 91.8843 42.7104C91.7483 42.3591 91.5376 42.0415 91.2669 41.7797C90.6215 41.268 89.8102 41.0125 88.9883 41.0621H86.1058V46.4864ZM89.4553 48.0348H86.1058V53.799H84.2188V39.4948H88.9364C90.5498 39.4948 91.767 39.863 92.6491 40.5995C93.5313 41.3359 93.9465 42.3981 93.9465 43.8002C93.9632 44.6329 93.7118 45.4489 93.2294 46.1276C92.7206 46.8086 92.0236 47.3256 91.2244 47.6147L94.5786 53.6621V53.7801H92.5548L89.4553 48.0348ZM81.8128 51.9296C81.3089 52.6384 80.6038 53.1795 79.789 53.4827C78.8228 53.8454 77.7967 54.0216 76.765 54.002C75.6759 54.0199 74.603 53.7356 73.6655 53.1806C72.7538 52.6257 72.0254 51.8146 71.5709 50.8485C71.0597 49.7522 70.8002 48.5553 70.8114 47.3456V46.0804C70.8114 43.9277 71.313 42.2581 72.3163 41.0716C73.3211 39.8866 74.727 39.2965 76.5621 39.2965C77.8585 39.2336 79.1344 39.639 80.1569 40.439C81.1039 41.2694 81.7007 42.4285 81.827 43.6822H79.9399C79.5877 41.7939 78.4633 40.8497 76.5669 40.8497C76.0163 40.8154 75.4659 40.9188 74.9652 41.1503C74.4645 41.3819 74.0292 41.7345 73.6986 42.1762C73.0475 43.0638 72.722 44.3478 72.7126 46.0285V47.2087C72.6411 48.569 73.0282 49.914 73.8118 51.0279C74.1562 51.4864 74.6064 51.8547 75.124 52.1013C75.6415 52.3479 76.211 52.4655 76.7839 52.4441C77.4085 52.4562 78.0315 52.3766 78.6332 52.2081C79.136 52.0715 79.5915 51.7987 79.9494 51.4197V48.2237H76.6471V46.6705H81.8364L81.8128 51.9296Z"></path>
  </symbol>
  <symbol fill="none" xmlns="http://www.w3.org/2000/svg" viewBox="0 0 20 18" id="parameters">
    <path d="M15.75 17.25C14.7 17.25 13.8125 16.8875 13.0875 16.1625C12.3625 15.4375 12 14.55 12 13.5C12 12.45 12.3625 11.5625 13.0875 10.8375C13.8125 10.1125 14.7 9.75 15.75 9.75C16.8 9.75 17.6875 10.1125 18.4125 10.8375C19.1375 11.5625 19.5 12.45 19.5 13.5C19.5 14.55 19.1375 15.4375 18.4125 16.1625C17.6875 16.8875 16.8 17.25 15.75 17.25ZM15.75 15.25C16.2333 15.25 16.6458 15.0792 16.9875 14.7375C17.3292 14.3958 17.5 13.9833 17.5 13.5C17.5 13.0167 17.3292 12.6042 16.9875 12.2625C16.6458 11.9208 16.2333 11.75 15.75 11.75C15.2667 11.75 14.8542 11.9208 14.5125 12.2625C14.1708 12.6042 14 13.0167 14 13.5C14 13.9833 14.1708 14.3958 14.5125 14.7375C14.8542 15.0792 15.2667 15.25 15.75 15.25ZM9 14.5H3C2.71667 14.5 2.47917 14.4042 2.2875 14.2125C2.09583 14.0208 2 13.7833 2 13.5C2 13.2167 2.09583 12.9792 2.2875 12.7875C2.47917 12.5958 2.71667 12.5 3 12.5H9C9.28333 12.5 9.52083 12.5958 9.7125 12.7875C9.90417 12.9792 10 13.2167 10 13.5C10 13.7833 9.90417 14.0208 9.7125 14.2125C9.52083 14.4042 9.28333 14.5 9 14.5ZM4.25 8.25C3.2 8.25 2.3125 7.8875 1.5875 7.1625C0.8625 6.4375 0.5 5.55 0.5 4.5C0.5 3.45 0.8625 2.5625 1.5875 1.8375C2.3125 1.1125 3.2 0.75 4.25 0.75C5.3 0.75 6.1875 1.1125 6.9125 1.8375C7.6375 2.5625 8 3.45 8 4.5C8 5.55 7.6375 6.4375 6.9125 7.1625C6.1875 7.8875 5.3 8.25 4.25 8.25ZM4.25 6.25C4.73333 6.25 5.14583 6.07917 5.4875 5.7375C5.82917 5.39583 6 4.98333 6 4.5C6 4.01667 5.82917 3.60417 5.4875 3.2625C5.14583 2.92083 4.73333 2.75 4.25 2.75C3.76667 2.75 3.35417 2.92083 3.0125 3.2625C2.67083 3.60417 2.5 4.01667 2.5 4.5C2.5 4.98333 2.67083 5.39583 3.0125 5.7375C3.35417 6.07917 3.76667 6.25 4.25 6.25ZM17 5.5H11C10.7167 5.5 10.4792 5.40417 10.2875 5.2125C10.0958 5.02083 10 4.78333 10 4.5C10 4.21667 10.0958 3.97917 10.2875 3.7875C10.4792 3.59583 10.7167 3.5 11 3.5H17C17.2833 3.5 17.5208 3.59583 17.7125 3.7875C17.9042 3.97917 18 4.21667 18 4.5C18 4.78333 17.9042 5.02083 17.7125 5.2125C17.5208 5.40417 17.2833 5.5 17 5.5Z" fill="currentColor"></path>
  </symbol>
  <symbol fill="none" xmlns="http://www.w3.org/2000/svg" viewBox="0 0 34 34" id="photo_search">
    <path fill-rule="evenodd" clip-rule="evenodd" d="M33.6668 12.833C33.6668 19.7366 28.0704 25.333 21.1668 25.333C18.2808 25.333 15.6231 24.3549 13.5074 22.7121C13.4277 22.8807 13.3181 23.0387 13.1787 23.1782L3.17867 33.1782C2.5278 33.8291 1.47253 33.8291 0.821652 33.1782C0.170778 32.5273 0.170778 31.472 0.821651 30.8212L10.8216 20.8212C10.9611 20.6817 11.1191 20.5722 11.2877 20.4925C9.64491 18.3767 8.66683 15.7191 8.66683 12.833C8.66683 5.92945 14.2633 0.333008 21.1668 0.333008C28.0704 0.333008 33.6668 5.92945 33.6668 12.833ZM30.3335 12.833C30.3335 7.7704 26.2294 3.66634 21.1668 3.66634C16.1042 3.66634 12.0002 7.7704 12.0002 12.833C12.0002 17.8956 16.1042 21.9997 21.1668 21.9997C26.2294 21.9997 30.3335 17.8956 30.3335 12.833ZM22.8335 8.66634C22.8335 7.74587 22.0873 6.99967 21.1668 6.99967C20.2464 6.99967 19.5002 7.74587 19.5002 8.66634V11.1663H17.0002C16.0797 11.1663 15.3335 11.9125 15.3335 12.833C15.3335 13.7535 16.0797 14.4997 17.0002 14.4997H19.5002V16.9997C19.5002 17.9201 20.2464 18.6663 21.1668 18.6663C22.0873 18.6663 22.8335 17.9201 22.8335 16.9997V14.4997H25.3335C26.254 14.4997 27.0002 13.7535 27.0002 12.833C27.0002 11.9125 26.254 11.1663 25.3335 11.1663H22.8335V8.66634Z" fill="white"></path>
  </symbol>
  <symbol fill="none" xmlns="http://www.w3.org/2000/svg" viewBox="0 0 54 54" id="player">
    <path d="M27.0002 0.333008C41.7282 0.333008 53.6668 12.2717 53.6668 26.9997C53.6668 41.7277 41.7282 53.6663 27.0002 53.6663C12.2722 53.6663 0.333496 41.7277 0.333496 26.9997C0.333496 12.2717 12.2722 0.333008 27.0002 0.333008ZM18.9042 18.0663L18.7628 19.3997L18.6828 20.2877L18.5708 21.8877L18.5068 23.1143L18.4588 24.461L18.4322 25.925V27.4663L18.4588 28.9303L18.5068 30.2797L18.5708 31.5063L18.6828 33.1063L18.8722 35.053L18.9068 35.325C18.9658 35.8148 19.138 36.2841 19.4097 36.6959C19.6814 37.1076 20.0452 37.4505 20.4724 37.6973C20.8995 37.9441 21.3783 38.0881 21.8707 38.1179C22.3631 38.1477 22.8557 38.0625 23.3095 37.869L24.5255 37.3303L26.2615 36.5063L27.3015 35.9837L28.4482 35.3863L29.6908 34.7117L31.0188 33.9597L32.3335 33.1863L32.9495 32.813L34.0962 32.093L35.1308 31.4263L36.0428 30.8157L37.7842 29.589L38.2562 29.2397C38.6512 28.9434 38.9718 28.5592 39.1925 28.1175C39.4132 27.6758 39.528 27.1888 39.5277 26.695C39.5275 26.2012 39.4122 25.7143 39.191 25.2728C38.9698 24.8314 38.6488 24.4475 38.2535 24.1517L37.1708 23.3597L36.4375 22.845L35.5842 22.2637L34.0775 21.2823L32.9362 20.5677L31.6828 19.8157L30.3522 19.0477L29.0775 18.341L27.8855 17.7063L26.7922 17.1463L25.3522 16.445L24.1815 15.9063L23.5682 15.6343C23.4838 15.5985 23.3994 15.563 23.3148 15.5277C22.861 15.3327 22.368 15.2461 21.8749 15.2748C21.3819 15.3035 20.9022 15.4468 20.4742 15.6932C20.0461 15.9396 19.6813 16.2823 19.4088 16.6943C19.1363 17.1062 18.9635 17.576 18.9042 18.0663Z" fill="#FFBC38"></path>
  </symbol>
  <symbol fill="none" xmlns="http://www.w3.org/2000/svg" viewBox="0 0 20 20" id="search">
    <path fill-rule="evenodd" clip-rule="evenodd" d="M8.49977 1.91687e-08C7.14436 0.000115492 5.80863 0.324364 4.60402 0.945694C3.39941 1.56702 2.36086 2.46742 1.575 3.57175C0.789144 4.67609 0.278775 5.95235 0.0864735 7.29404C-0.105828 8.63574 0.0255146 10.004 0.469544 11.2846C0.913572 12.5652 1.65741 13.7211 2.639 14.6557C3.62059 15.5904 4.81147 16.2768 6.11228 16.6576C7.41309 17.0384 8.78611 17.1026 10.1168 16.8449C11.4475 16.5872 12.6972 16.015 13.7618 15.176L17.4138 18.828C17.6024 19.0102 17.855 19.111 18.1172 19.1087C18.3794 19.1064 18.6302 19.0012 18.8156 18.8158C19.001 18.6304 19.1062 18.3796 19.1084 18.1174C19.1107 17.8552 19.0099 17.6026 18.8278 17.414L15.1758 13.762C16.1638 12.5086 16.7789 11.0024 16.9509 9.41573C17.1228 7.82905 16.8446 6.22602 16.148 4.79009C15.4514 3.35417 14.3646 2.14336 13.0121 1.29623C11.6595 0.449106 10.0957 -0.000107143 8.49977 1.91687e-08ZM1.99977 8.5C1.99977 6.77609 2.68458 5.12279 3.90357 3.90381C5.12256 2.68482 6.77586 2 8.49977 2C10.2237 2 11.877 2.68482 13.096 3.90381C14.3149 5.12279 14.9998 6.77609 14.9998 8.5C14.9998 10.2239 14.3149 11.8772 13.096 13.0962C11.877 14.3152 10.2237 15 8.49977 15C6.77586 15 5.12256 14.3152 3.90357 13.0962C2.68458 11.8772 1.99977 10.2239 1.99977 8.5Z" fill="currentColor"></path>
  </symbol>
  <symbol fill="none" xmlns="http://www.w3.org/2000/svg" viewBox="0 0 21 18" id="telegram">
    <path fill-rule="evenodd" clip-rule="evenodd" d="M18.7771 0.430003C19.0243 0.325994 19.2947 0.290122 19.5604 0.32612C19.8261 0.362119 20.0773 0.468672 20.2878 0.634688C20.4984 0.800705 20.6606 1.02012 20.7575 1.27009C20.8545 1.52005 20.8827 1.79144 20.8391 2.056L18.5711 15.813C18.3511 17.14 16.8951 17.901 15.6781 17.24C14.6601 16.687 13.1481 15.835 11.7881 14.946C11.1081 14.501 9.02514 13.076 9.28114 12.062C9.50114 11.195 13.0011 7.937 15.0011 6C15.7861 5.239 15.4281 4.8 14.5011 5.5C12.1991 7.238 8.50314 9.881 7.28114 10.625C6.20314 11.281 5.64114 11.393 4.96914 11.281C3.74314 11.077 2.60614 10.761 1.67814 10.376C0.424142 9.856 0.485142 8.132 1.67714 7.63L18.7771 0.430003Z" fill="white"></path>
  </symbol>
  <symbol fill="none" xmlns="http://www.w3.org/2000/svg" viewBox="0 0 16 16" id="tick">
    <path fill-rule="evenodd" clip-rule="evenodd" d="M0.5 8C0.5 12.1421 3.85786 15.5 8 15.5C12.1421 15.5 15.5 12.1421 15.5 8C15.5 3.85786 12.1421 0.5 8 0.5C3.85786 0.5 0.5 3.85786 0.5 8ZM11.5529 6.25679C11.8328 5.95145 11.8121 5.47703 11.5068 5.19713C11.2015 4.91724 10.727 4.93787 10.4471 5.24321L6.9019 9.11074L5.57617 7.51986C5.31099 7.20165 4.83807 7.15866 4.51986 7.42383C4.20165 7.68901 4.15866 8.16193 4.42383 8.48014L6.29883 10.7301C6.43737 10.8964 6.64096 10.9947 6.8573 10.9998C7.07364 11.0049 7.28164 10.9163 7.42787 10.7568L11.5529 6.25679Z" fill="#FFBC38"></path>
  </symbol>
  <symbol fill="none" xmlns="http://www.w3.org/2000/svg" viewBox="0 0 18 18" id="vk">
    <path fill-rule="evenodd" clip-rule="evenodd" d="M4 0C2.93913 0 1.92172 0.421427 1.17157 1.17157C0.421427 1.92172 0 2.93913 0 4V14C0 15.0609 0.421427 16.0783 1.17157 16.8284C1.92172 17.5786 2.93913 18 4 18H14C15.0609 18 16.0783 17.5786 16.8284 16.8284C17.5786 16.0783 18 15.0609 18 14V4C18 2.93913 17.5786 1.92172 16.8284 1.17157C16.0783 0.421427 15.0609 0 14 0H4ZM14.332 7.055C14.4792 6.83434 14.5327 6.56424 14.4808 6.30413C14.4288 6.04402 14.2757 5.8152 14.055 5.668C13.8343 5.5208 13.5642 5.4673 13.3041 5.51924C13.044 5.57119 12.8152 5.72434 12.668 5.945C12.314 6.415 11.943 6.865 11.509 7.265C11.006 7.729 10.497 8.077 10.001 8.283L9.993 6.383C9.96434 6.13975 9.84741 5.91547 9.66437 5.75272C9.48134 5.58996 9.24493 5.50003 9 5.5C8.458 5.531 8 5.931 8 6.5V10.873C6.052 10.333 5 8.443 5 6.5C5 6.23478 4.89464 5.98043 4.70711 5.79289C4.51957 5.60536 4.26522 5.5 4 5.5C3.73478 5.5 3.48043 5.60536 3.29289 5.79289C3.10536 5.98043 3 6.23478 3 6.5C3 10.132 5.51 13 9 13C9.26522 13 9.51957 12.8946 9.70711 12.7071C9.89464 12.5196 10 12.2652 10 12V10.437C11.332 10.543 12.624 11.484 13.106 12.447C13.1622 12.5686 13.2422 12.6776 13.3413 12.7677C13.4404 12.8578 13.5566 12.927 13.683 12.9713C13.8094 13.0156 13.9433 13.0341 14.077 13.0256C14.2107 13.0172 14.3413 12.982 14.461 12.9221C14.5808 12.8622 14.6874 12.7788 14.7743 12.677C14.8613 12.5751 14.9269 12.4569 14.9673 12.3292C15.0077 12.2015 15.022 12.067 15.0094 11.9337C14.9968 11.8003 14.9576 11.6709 14.894 11.553C14.416 10.596 13.524 9.701 12.426 9.117C12.574 8.996 12.721 8.868 12.866 8.735C13.4169 8.23255 13.9088 7.66891 14.332 7.055Z" fill="white"></path>
  </symbol>
  <symbol fill="none" xmlns="http://www.w3.org/2000/svg" viewBox="0 0 20 20" id="whatsapp">
    <path fill-rule="evenodd" clip-rule="evenodd" d="M10 0C4.477 0 0 4.477 0 10C0 11.89 0.525 13.66 1.438 15.168L0.546 18.2C0.494785 18.3741 0.491415 18.5587 0.536244 18.7346C0.581074 18.9104 0.672448 19.0709 0.800759 19.1992C0.929071 19.3276 1.08958 19.4189 1.26542 19.4638C1.44125 19.5086 1.62592 19.5052 1.8 19.454L4.832 18.562C6.39068 19.5051 8.17822 20.0025 10 20C15.523 20 20 15.523 20 10C20 4.477 15.523 0 10 0ZM7.738 12.263C9.761 14.285 11.692 14.552 12.374 14.577C13.411 14.615 14.421 13.823 14.814 12.904C14.8636 12.7897 14.8816 12.6641 14.8661 12.5405C14.8507 12.4168 14.8023 12.2996 14.726 12.201C14.178 11.501 13.437 10.998 12.713 10.498C12.5618 10.3935 12.3761 10.3516 12.1947 10.381C12.0133 10.4105 11.8503 10.509 11.74 10.656L11.14 11.571C11.1085 11.6202 11.0593 11.6555 11.0026 11.6696C10.9459 11.6837 10.8859 11.6756 10.835 11.647C10.428 11.414 9.835 11.018 9.409 10.592C8.983 10.166 8.611 9.6 8.402 9.219C8.37609 9.17059 8.3686 9.11444 8.38091 9.06093C8.39323 9.00743 8.42453 8.9602 8.469 8.928L9.393 8.242C9.52487 8.12734 9.60996 7.9682 9.63209 7.79486C9.65422 7.62153 9.61183 7.44611 9.513 7.302C9.065 6.646 8.543 5.812 7.786 5.259C7.68831 5.1882 7.57386 5.14406 7.45393 5.13091C7.334 5.11776 7.21271 5.13606 7.102 5.184C6.182 5.578 5.386 6.588 5.424 7.627C5.449 8.309 5.716 10.24 7.738 12.263Z" fill="currentColor"></path>
  </symbol>
  <symbol fill="none" xmlns="http://www.w3.org/2000/svg" viewBox="0 0 20 16" id="youtube">
    <path fill-rule="evenodd" clip-rule="evenodd" d="M10 0C10.855 0 11.732 0.0220001 12.582 0.0580001L13.586 0.106L14.547 0.163L15.447 0.224L16.269 0.288C17.161 0.356278 18.0004 0.736947 18.6395 1.36304C19.2786 1.98913 19.6764 2.82054 19.763 3.711L19.803 4.136L19.878 5.046C19.948 5.989 20 7.017 20 8C20 8.983 19.948 10.011 19.878 10.954L19.803 11.864C19.79 12.01 19.777 12.151 19.763 12.289C19.6764 13.1796 19.2784 14.0112 18.6391 14.6373C17.9999 15.2634 17.1602 15.6439 16.268 15.712L15.448 15.775L14.548 15.837L13.586 15.894L12.582 15.942C11.7218 15.9794 10.861 15.9987 10 16C9.13902 15.9987 8.27817 15.9794 7.418 15.942L6.414 15.894L5.453 15.837L4.553 15.775L3.731 15.712C2.83895 15.6437 1.99955 15.2631 1.36047 14.637C0.721394 14.0109 0.323574 13.1795 0.237 12.289L0.197 11.864L0.122 10.954C0.0455376 9.97114 0.00484402 8.98582 0 8C0 7.017 0.052 5.989 0.122 5.046L0.197 4.136C0.21 3.99 0.223 3.849 0.237 3.711C0.323541 2.8207 0.721217 1.98942 1.36009 1.36334C1.99897 0.737271 2.83813 0.356503 3.73 0.288L4.551 0.224L5.451 0.163L6.413 0.106L7.417 0.0580001C8.2775 0.0206329 9.13869 0.00129529 10 0ZM8 5.575V10.425C8 10.887 8.5 11.175 8.9 10.945L13.1 8.52C13.1914 8.46739 13.2673 8.39162 13.3201 8.30033C13.3729 8.20904 13.4007 8.10545 13.4007 8C13.4007 7.89455 13.3729 7.79096 13.3201 7.69967C13.2673 7.60838 13.1914 7.53261 13.1 7.48L8.9 5.056C8.80876 5.00332 8.70526 4.9756 8.5999 4.97562C8.49455 4.97563 8.39106 5.00339 8.29983 5.0561C8.20861 5.1088 8.13287 5.1846 8.08024 5.27587C8.02761 5.36713 7.99993 5.47065 8 5.576V5.575Z" fill="currentColor"></path>
  </symbol>
  <symbol fill="none" xmlns="http://www.w3.org/2000/svg" viewBox="0 0 21 21" id="phone">
    <path fill-rule="evenodd" clip-rule="evenodd" d="M7.172 13.829C11.017 17.674 14.58 18.095 15.626 18.134C16.89 18.18 18.18 17.148 18.738 16.091C17.848 15.047 16.689 14.237 15.42 13.359C14.671 14.107 13.748 15.497 12.519 14.999C11.82 14.718 10.094 13.923 8.586 12.414C7.077 10.906 6.283 9.18 6 8.482C5.502 7.251 6.896 6.326 7.645 5.577C6.767 4.287 5.971 3.098 4.929 2.253C3.857 2.813 2.819 4.093 2.866 5.374C2.905 6.42 3.326 9.983 7.172 13.829ZM15.552 20.133C14.112 20.08 10.031 19.516 5.757 15.243C1.484 10.969 0.921 6.889 0.867 5.448C0.787 3.252 2.469 1.119 4.412 0.286C4.64598 0.184967 4.9022 0.146501 5.15553 0.174376C5.40886 0.202251 5.65059 0.295509 5.857 0.445C7.465 1.618 8.574 3.395 9.527 4.787C9.72525 5.07645 9.81607 5.4261 9.78375 5.77544C9.75142 6.12479 9.59799 6.45184 9.35 6.7L7.994 8.057C8.309 8.752 8.95 9.95 10 11C11.05 12.05 12.248 12.691 12.944 13.006L14.299 11.65C14.5481 11.4015 14.8765 11.2483 15.227 11.217C15.5775 11.1858 15.9278 11.2785 16.217 11.479C17.637 12.463 19.305 13.556 20.521 15.113C20.6826 15.3209 20.7854 15.5684 20.8187 15.8296C20.8519 16.0909 20.8144 16.3562 20.71 16.598C19.873 18.551 17.755 20.214 15.552 20.133Z" fill="currentColor"></path>
  </symbol>
  <symbol fill="none" xmlns="http://www.w3.org/2000/svg" viewBox="0 0 18 16" id="burger">
    <path d="M17 14C17.2549 14.0003 17.5 14.0979 17.6854 14.2728C17.8707 14.4478 17.9822 14.687 17.9972 14.9414C18.0121 15.1958 17.9293 15.4464 17.7657 15.6418C17.6021 15.8373 17.3701 15.9629 17.117 15.993L17 16H1C0.74512 15.9997 0.499968 15.9021 0.314632 15.7272C0.129296 15.5522 0.017765 15.313 0.00282788 15.0586C-0.0121092 14.8042 0.0706746 14.5536 0.234265 14.3582C0.397855 14.1627 0.629904 14.0371 0.883 14.007L1 14H17ZM17 7C17.2652 7 17.5196 7.10536 17.7071 7.29289C17.8946 7.48043 18 7.73478 18 8C18 8.26522 17.8946 8.51957 17.7071 8.70711C17.5196 8.89464 17.2652 9 17 9H1C0.734784 9 0.48043 8.89464 0.292893 8.70711C0.105357 8.51957 0 8.26522 0 8C0 7.73478 0.105357 7.48043 0.292893 7.29289C0.48043 7.10536 0.734784 7 1 7H17ZM17 0C17.2652 0 17.5196 0.105357 17.7071 0.292893C17.8946 0.48043 18 0.734784 18 1C18 1.26522 17.8946 1.51957 17.7071 1.70711C17.5196 1.89464 17.2652 2 17 2H1C0.734784 2 0.48043 1.89464 0.292893 1.70711C0.105357 1.51957 0 1.26522 0 1C0 0.734784 0.105357 0.48043 0.292893 0.292893C0.48043 0.105357 0.734784 0 1 0H17Z" fill="currentColor"></path>
  </symbol>
  <symbol fill="none" xmlns="http://www.w3.org/2000/svg" viewBox="0 0 18 21" id="place">
    <path fill-rule="evenodd" clip-rule="evenodd" d="M9 0C11.3869 0 13.6761 0.948211 15.364 2.63604C17.0518 4.32387 18 6.61305 18 9C18 12.074 16.324 14.59 14.558 16.395C13.6755 17.2869 12.7128 18.0956 11.682 18.811L11.256 19.101L11.056 19.234L10.679 19.474L10.343 19.679L9.927 19.921C9.64451 20.0818 9.32505 20.1663 9 20.1663C8.67495 20.1663 8.35549 20.0818 8.073 19.921L7.657 19.679L7.137 19.359L6.945 19.234L6.535 18.961C5.42298 18.2083 4.38707 17.3489 3.442 16.395C1.676 14.589 0 12.074 0 9C0 6.61305 0.948211 4.32387 2.63604 2.63604C4.32387 0.948211 6.61305 0 9 0ZM9 2C7.14348 2 5.36301 2.7375 4.05025 4.05025C2.7375 5.36301 2 7.14348 2 9C2 11.322 3.272 13.36 4.871 14.996C5.55862 15.6919 6.30174 16.3307 7.093 16.906L7.551 17.232C7.699 17.335 7.841 17.431 7.978 17.52L8.368 17.77L8.711 17.979L9 18.148L9.455 17.879L9.822 17.649C10.017 17.525 10.227 17.386 10.449 17.232L10.907 16.906C11.6983 16.3307 12.4414 15.6919 13.129 14.996C14.728 13.361 16 11.322 16 9C16 7.14348 15.2625 5.36301 13.9497 4.05025C12.637 2.7375 10.8565 2 9 2ZM9 5C10.0609 5 11.0783 5.42143 11.8284 6.17157C12.5786 6.92172 13 7.93913 13 9C13 10.0609 12.5786 11.0783 11.8284 11.8284C11.0783 12.5786 10.0609 13 9 13C7.93913 13 6.92172 12.5786 6.17157 11.8284C5.42143 11.0783 5 10.0609 5 9C5 7.93913 5.42143 6.92172 6.17157 6.17157C6.92172 5.42143 7.93913 5 9 5ZM9 7C8.46957 7 7.96086 7.21071 7.58579 7.58579C7.21071 7.96086 7 8.46957 7 9C7 9.53043 7.21071 10.0391 7.58579 10.4142C7.96086 10.7893 8.46957 11 9 11C9.53043 11 10.0391 10.7893 10.4142 10.4142C10.7893 10.0391 11 9.53043 11 9C11 8.46957 10.7893 7.96086 10.4142 7.58579C10.0391 7.21071 9.53043 7 9 7Z" fill="currentColor"></path>
  </symbol>
  <symbol viewBox="0 0 20 20" fill="none" xmlns="http://www.w3.org/2000/svg" id="mobile-cross">
    <path d="M10 0C15.523 0 20 4.477 20 10C20 15.523 15.523 20 10 20C4.477 20 0 15.523 0 10C0 4.477 4.477 0 10 0ZM7.879 6.464C7.69946 6.28275 7.45743 6.17697 7.20245 6.16832C6.94748 6.15967 6.69883 6.2488 6.50742 6.41747C6.31601 6.58613 6.1963 6.82159 6.1728 7.07562C6.14929 7.32966 6.22378 7.58308 6.381 7.784L6.465 7.879L8.585 9.999L6.465 12.121C6.28375 12.3005 6.17797 12.5426 6.16932 12.7975C6.16067 13.0525 6.2498 13.3012 6.41847 13.4926C6.58713 13.684 6.82258 13.8037 7.07662 13.8272C7.33066 13.8507 7.58408 13.7762 7.785 13.619L7.879 13.536L10 11.414L12.121 13.536C12.3005 13.7173 12.5426 13.823 12.7975 13.8317C13.0525 13.8403 13.3012 13.7512 13.4926 13.5825C13.684 13.4139 13.8037 13.1784 13.8272 12.9244C13.8507 12.6703 13.7762 12.4169 13.619 12.216L13.536 12.121L11.414 10L13.536 7.879C13.7173 7.69946 13.823 7.45743 13.8317 7.20245C13.8403 6.94748 13.7512 6.69883 13.5825 6.50742C13.4139 6.31601 13.1784 6.1963 12.9244 6.1728C12.6703 6.14929 12.4169 6.22378 12.216 6.381L12.121 6.464L10 8.586L7.879 6.464Z" fill="#061B31"/>
  </symbol>
  <symbol viewBox="0 0 5 8" fill="none" xmlns="http://www.w3.org/2000/svg" id="small-arrow">
    <path fill-rule="evenodd" clip-rule="evenodd" d="M0.293202 0.464997C0.105731 0.652525 0.000415865 0.906833 0.000415865 1.172C0.000415865 1.43716 0.105731 1.69147 0.293202 1.879L2.4142 4L0.293202 6.121C0.105562 6.30851 9.3828e-05 6.56287 6.25745e-08 6.82814C-9.37028e-05 7.09341 0.105194 7.34786 0.292702 7.5355C0.48021 7.72314 0.734578 7.82861 0.999848 7.8287C1.26512 7.82879 1.51956 7.72351 1.7072 7.536L4.5362 4.707C4.72367 4.51947 4.82899 4.26516 4.82899 4C4.82899 3.73483 4.72367 3.48053 4.5362 3.293L1.7072 0.464997C1.51967 0.277526 1.26537 0.172211 1.0002 0.172211C0.735038 0.172211 0.48073 0.277526 0.293202 0.464997Z" fill="currentColor"/>
  </symbol>

<!-- flags -->
  <symbol fill="none" xmlns="http://www.w3.org/2000/svg" viewBox="0 0 40 40" id="poland">
    <g clip-path="url(#clip0_36_3950)">
      <rect width="40" height="40" rx="20" fill="#AF010D"></rect>
      <path fill-rule="evenodd" clip-rule="evenodd" d="M-8 0H48V21.3333H-8V0Z" fill="white"></path>
    </g>
    <defs>
      <clipPath id="clip0_36_3950">
        <rect width="40" height="40" rx="20" fill="white"></rect>
      </clipPath>
    </defs>
  </symbol>
  <symbol fill="none" xmlns="http://www.w3.org/2000/svg" viewBox="0 0 40 40" id="russia">
    <g clip-path="url(#clip0_36_3900)">
      <rect width="40" height="40" rx="20" fill="#1A47B8"></rect>
      <path fill-rule="evenodd" clip-rule="evenodd" d="M-5.3335 26.6666H50.6665V40H-5.3335V26.6666Z" fill="#F93939"></path>
      <path fill-rule="evenodd" clip-rule="evenodd" d="M-5.3335 0H50.6665V13.3333H-5.3335V0Z" fill="white"></path>
    </g>
    <defs>
      <clipPath id="clip0_36_3900">
        <rect width="40" height="40" rx="20" fill="white"></rect>
      </clipPath>
    </defs>
  </symbol>
  <symbol fill="none" xmlns="http://www.w3.org/2000/svg" viewBox="0 0 40 40" id="sweden">
    <g clip-path="url(#clip0_37_3954)">
      <rect width="40" height="40" rx="20" fill="#3A99FF"></rect>
      <path fill-rule="evenodd" clip-rule="evenodd" d="M10.6665 24H-5.3335V16H10.6665V0H18.6665V16H50.6665V24H18.6665V40H10.6665V24Z" fill="#FFDA2C"></path>
    </g>
    <defs>
      <clipPath id="clip0_37_3954">
        <rect width="40" height="40" rx="20" fill="white"></rect>
      </clipPath>
    </defs>
  </symbol>
  <symbol fill="none" xmlns="http://www.w3.org/2000/svg" viewBox="0 0 40 40" id="belgia">
    <g clip-path="url(#clip0_36_3932)">
      <rect y="40" width="40" height="40" rx="20" transform="rotate(-90 0 40)" fill="#FFBC38"></rect>
      <path fill-rule="evenodd" clip-rule="evenodd" d="M26.6665 40L26.6665 -1.19209e-07L39.9998 -7.02028e-07L39.9998 40L26.6665 40Z" fill="#FF0000"></path>
      <path fill-rule="evenodd" clip-rule="evenodd" d="M0 40L-1.74846e-06 -1.19209e-07L13.3333 -7.02028e-07L13.3333 40L0 40Z" fill="#151515"></path>
    </g>
    <defs>
      <clipPath id="clip0_36_3932">
        <rect y="40" width="40" height="40" rx="20" transform="rotate(-90 0 40)" fill="white"></rect>
      </clipPath>
    </defs>
  </symbol>
  <symbol fill="none" xmlns="http://www.w3.org/2000/svg" viewBox="0 0 40 40" id="french">
    <g clip-path="url(#clip0_37_3957)">
      <rect width="40" height="40" rx="20" fill="white"></rect>
      <path fill-rule="evenodd" clip-rule="evenodd" d="M-8 0H10.6667V40H-8V0Z" fill="#1A47B8"></path>
      <path fill-rule="evenodd" clip-rule="evenodd" d="M29.3335 0H48.0002V40H29.3335V0Z" fill="#F93939"></path>
    </g>
    <defs>
      <clipPath id="clip0_37_3957">
        <rect width="40" height="40" rx="20" fill="white"></rect>
      </clipPath>
    </defs>
  </symbol>
  <symbol fill="none" xmlns="http://www.w3.org/2000/svg" viewBox="0 0 40 40" id="germany">
    <g clip-path="url(#clip0_36_3924)">
      <rect width="40" height="40" rx="20" fill="#F93939"></rect>
      <path fill-rule="evenodd" clip-rule="evenodd" d="M-8 26.6667H48V40.0001H-8V26.6667Z" fill="#FFDA2C"></path>
      <path fill-rule="evenodd" clip-rule="evenodd" d="M-8 0H48V13.3333H-8V0Z" fill="#151515"></path>
    </g>
    <defs>
      <clipPath id="clip0_36_3924">
        <rect width="40" height="40" rx="20" fill="white"></rect>
      </clipPath>
    </defs>
  </symbol>
  <symbol fill="none" xmlns="http://www.w3.org/2000/svg" viewBox="0 0 40 40" id="italian">
    <g clip-path="url(#clip0_36_3920)">
      <rect width="40" height="40" rx="20" fill="white"></rect>
      <path fill-rule="evenodd" clip-rule="evenodd" d="M-8 0H10.6667V40H-8V0Z" fill="#249F58"></path>
      <path fill-rule="evenodd" clip-rule="evenodd" d="M29.3335 0H48.0002V40H29.3335V0Z" fill="#F93939"></path>
    </g>
    <defs>
      <clipPath id="clip0_36_3920">
        <rect width="40" height="40" rx="20" fill="white"></rect>
      </clipPath>
    </defs>
  </symbol>
  <symbol fill="none" xmlns="http://www.w3.org/2000/svg" viewBox="0 0 40 40" id="japan">
    <rect width="40" height="40" rx="20" fill="white"></rect>
    <path d="M19.9998 29.3334C25.1545 29.3334 29.3332 25.1547 29.3332 20.0001C29.3332 14.8454 25.1545 10.6667 19.9998 10.6667C14.8452 10.6667 10.6665 14.8454 10.6665 20.0001C10.6665 25.1547 14.8452 29.3334 19.9998 29.3334Z" fill="#F93939"></path>
  </symbol>
</svg>