<svg width="18" height="18" viewBox="0 0 18 18" fill="none" xmlns="http://www.w3.org/2000/svg">
<path fill-rule="evenodd" clip-rule="evenodd" d="M4 0C2.93913 0 1.92172 0.421427 1.17157 1.17157C0.421427 1.92172 0 2.93913 0 4V14C0 15.0609 0.421427 16.0783 1.17157 16.8284C1.92172 17.5786 2.93913 18 4 18H14C15.0609 18 16.0783 17.5786 16.8284 16.8284C17.5786 16.0783 18 15.0609 18 14V4C18 2.93913 17.5786 1.92172 16.8284 1.17157C16.0783 0.421427 15.0609 0 14 0H4ZM14.332 7.055C14.4792 6.83434 14.5327 6.56424 14.4808 6.30413C14.4288 6.04402 14.2757 5.8152 14.055 5.668C13.8343 5.5208 13.5642 5.4673 13.3041 5.51924C13.044 5.57119 12.8152 5.72434 12.668 5.945C12.314 6.415 11.943 6.865 11.509 7.265C11.006 7.729 10.497 8.077 10.001 8.283L9.993 6.383C9.96434 6.13975 9.84741 5.91547 9.66437 5.75272C9.48134 5.58996 9.24493 5.50003 9 5.5C8.458 5.531 8 5.931 8 6.5V10.873C6.052 10.333 5 8.443 5 6.5C5 6.23478 4.89464 5.98043 4.70711 5.79289C4.51957 5.60536 4.26522 5.5 4 5.5C3.73478 5.5 3.48043 5.60536 3.29289 5.79289C3.10536 5.98043 3 6.23478 3 6.5C3 10.132 5.51 13 9 13C9.26522 13 9.51957 12.8946 9.70711 12.7071C9.89464 12.5196 10 12.2652 10 12V10.437C11.332 10.543 12.624 11.484 13.106 12.447C13.1622 12.5686 13.2422 12.6776 13.3413 12.7677C13.4404 12.8578 13.5566 12.927 13.683 12.9713C13.8094 13.0156 13.9433 13.0341 14.077 13.0256C14.2107 13.0172 14.3413 12.982 14.461 12.9221C14.5808 12.8622 14.6874 12.7788 14.7743 12.677C14.8613 12.5751 14.9269 12.4569 14.9673 12.3292C15.0077 12.2015 15.022 12.067 15.0094 11.9337C14.9968 11.8003 14.9576 11.6709 14.894 11.553C14.416 10.596 13.524 9.701 12.426 9.117C12.574 8.996 12.721 8.868 12.866 8.735C13.4169 8.23255 13.9088 7.66891 14.332 7.055Z" fill="white"/>
</svg>
