<svg width="40" height="40" viewBox="0 0 40 40" fill="none" xmlns="http://www.w3.org/2000/svg">
<g clip-path="url(#clip0_120_1591)">
<rect width="40" height="40" rx="20" fill="white"/>
<path fill-rule="evenodd" clip-rule="evenodd" d="M0 0H24V18.6667H0V0Z" fill="#1A47B8"/>
<path fill-rule="evenodd" clip-rule="evenodd" d="M24 0V2.66667H56V0H24ZM24 5.33333V8H56V5.33333H24ZM24 10.6667V13.3333H56V10.6667H24ZM24 16V18.6667H56V16H24ZM0 21.3333V24H56V21.3333H0ZM0 26.6667V29.3333H56V26.6667H0ZM0 32V34.6667H56V32H0ZM0 37.3333V40H56V37.3333H0Z" fill="#F93939"/>
<path fill-rule="evenodd" clip-rule="evenodd" d="M2.6665 2.66675V5.33341H5.33317V2.66675H2.6665ZM7.99984 2.66675V5.33341H10.6665V2.66675H7.99984ZM13.3332 2.66675V5.33341H15.9998V2.66675H13.3332ZM18.6665 2.66675V5.33341H21.3332V2.66675H18.6665ZM15.9998 5.33341V8.00008H18.6665V5.33341H15.9998ZM10.6665 5.33341V8.00008H13.3332V5.33341H10.6665ZM5.33317 5.33341V8.00008H7.99984V5.33341H5.33317ZM2.6665 8.00008V10.6667H5.33317V8.00008H2.6665ZM7.99984 8.00008V10.6667H10.6665V8.00008H7.99984ZM13.3332 8.00008V10.6667H15.9998V8.00008H13.3332ZM18.6665 8.00008V10.6667H21.3332V8.00008H18.6665ZM2.6665 13.3334V16.0001H5.33317V13.3334H2.6665ZM7.99984 13.3334V16.0001H10.6665V13.3334H7.99984ZM13.3332 13.3334V16.0001H15.9998V13.3334H13.3332ZM18.6665 13.3334V16.0001H21.3332V13.3334H18.6665ZM15.9998 10.6667V13.3334H18.6665V10.6667H15.9998ZM10.6665 10.6667V13.3334H13.3332V10.6667H10.6665ZM5.33317 10.6667V13.3334H7.99984V10.6667H5.33317Z" fill="white"/>
</g>
<defs>
<clipPath id="clip0_120_1591">
<rect width="40" height="40" rx="20" fill="white"/>
</clipPath>
</defs>
</svg>
