<?xml version="1.0" encoding="utf-8"?><svg viewBox="0 0 180 63" xmlns="http://www.w3.org/2000/svg" xmlns:xlink="http://www.w3.org/1999/xlink"><style>:root>svg{display:none}:root>svg:target{display:block}</style><svg viewBox="0 0 14 8" id="arrow" xmlns="http://www.w3.org/2000/svg"><path fill-rule="evenodd" clip-rule="evenodd" d="M7.707 7.707a1 1 0 0 1-1.414 0L.636 2.05A1 1 0 1 1 2.05.636L7 5.586l4.95-4.95a1 1 0 0 1 1.414 1.414L7.707 7.707Z"/></svg><svg viewBox="0 0 19 16" id="catalogue" xmlns="http://www.w3.org/2000/svg"><path d="M1.5 0a1 1 0 1 0 0 2h16a1 1 0 1 0 0-2h-16Zm-1 8a1 1 0 0 1 1-1h3a1 1 0 0 1 0 2h-3a1 1 0 0 1-1-1Zm0 7a1 1 0 0 1 1-1h4a1 1 0 0 1 0 2h-4a1 1 0 0 1-1-1Zm7-5a5 5 0 1 1 9.172 2.757l1.535 1.536a1 1 0 0 1-1.414 1.414l-1.536-1.535A5 5 0 0 1 7.5 10Zm5-3a3 3 0 1 0 0 6 3 3 0 0 0 0-6Z"/></svg><svg viewBox="0 0 15 20" id="energy" xmlns="http://www.w3.org/2000/svg"><path d="M5 13H1.9c-.4 0-.696-.18-.888-.537-.191-.359-.17-.705.063-1.038L8.55.675c.167-.233.383-.396.65-.488.267-.091.542-.087.825.013.283.1.492.275.625.525s.183.517.15.8L10 8h3.875c.433 0 .738.192.912.575.175.383.121.742-.162 1.075L6.4 19.5a1.27 1.27 0 0 1-.675.425 1.133 1.133 0 0 1-.775-.075 1.31 1.31 0 0 1-.588-.538 1.232 1.232 0 0 1-.162-.787L5 13Z"/></svg><svg viewBox="0 0 180 63" id="logo" xmlns="http://www.w3.org/2000/svg"><path d="M34.736 10.735a2.391 2.391 0 0 1-1.74-2.903 2.394 2.394 0 0 1 2.9-1.742 28.843 28.843 0 0 1 16.768 11.675 28.879 28.879 0 0 1-4.686 37.945 28.832 28.832 0 0 1-38.207 0 28.879 28.879 0 0 1-4.686-37.945A28.843 28.843 0 0 1 21.851 6.09 2.391 2.391 0 0 1 24.8 8.765a2.397 2.397 0 0 1-1.786 1.97A24.097 24.097 0 0 0 9 20.487a24.127 24.127 0 0 0 3.912 31.704 24.088 24.088 0 0 0 31.923 0 24.127 24.127 0 0 0 3.912-31.704 24.097 24.097 0 0 0-14.012-9.752Z"/><path d="M26.532 2.403A2.404 2.404 0 0 1 28.933 0a2.4 2.4 0 0 1 2.401 2.403v32.763a2.404 2.404 0 0 1-2.401 2.403 2.4 2.4 0 0 1-2.401-2.403V2.403ZM172.863 19.219c-.661 1.6-1.236 3.03-1.689 4.484h-.057a81.458 81.458 0 0 0-1.75-4.456l-2.288-5.4h-4.968l6.562 13.029v8.941h4.463v-9.083l6.869-12.888h-4.916l-2.226 5.373Zm-20.211 4.343v3.347h3.34v5.368a6.52 6.52 0 0 1-2.288.311c-3.826 0-6.684-2.568-6.684-7.657 0-5.311 3.132-7.71 7.26-7.71 1.515-.052 3.024.22 4.425.799l.944-3.484a13.93 13.93 0 0 0-5.421-.916c-6.656 0-11.869 3.97-11.869 11.4 0 3.485 1.146 6.482 3.132 8.342 1.986 1.86 4.638 2.682 8.162 2.682a21.521 21.521 0 0 0 6.604-1.086V23.562h-7.605Zm-23.224-6.487c.672-.143 1.36-.2 2.047-.17 1.628 0 3.854.543 3.854 3.371 0 2.087-1.533 3.484-4.066 3.484h-1.835v-6.685Zm-4.411 18.742h4.43V26.91h1.504c2.109 0 3.043.888 3.647 3.715.543 2.653 1.114 4.57 1.444 5.193h4.543c-.472-.826-1.057-3.455-1.717-6.057-.543-2.228-1.449-3.715-3.072-4.315v-.085a5.837 5.837 0 0 0 3.973-5.457c.019-5.882-5.883-6.212-8.803-6.212a38.36 38.36 0 0 0-5.968.472l.019 21.654Zm-11.926-3.54V26.14h7.548v-3.437h-7.548v-5.311h8.02v-3.546h-12.497v21.971h12.949v-3.54h-8.472Zm-13.078-18.43v6.609c0 3.573.123 6.684.392 9.484h-.061a67.645 67.645 0 0 0-3.463-7.171l-4.864-8.923h-4.821v21.971h4.038v-6.741c0-3.914-.09-7.001-.274-9.716h.123a73.098 73.098 0 0 0 3.552 7.374l4.973 9.083h4.458v-21.97h-4.053Zm-24.758 18.41v-6.136h7.549v-3.418h-7.549v-5.311h8.02v-3.546H70.811v21.971h12.95v-3.54l-8.505-.02Zm47.775 14.39h3.402a3.36 3.36 0 0 0 2.311-.713 2.588 2.588 0 0 0 .802-2.053 2.687 2.687 0 0 0-.802-2.044 3.154 3.154 0 0 0-2.203-.794h-3.491l-.019 5.604Zm0 1.548v5.585h-1.887V39.495h5.289c1.572 0 2.796.4 3.67 1.199a4.067 4.067 0 0 1 1.331 3.172 4.003 4.003 0 0 1-1.303 3.206c-.861.752-2.1 1.127-3.717 1.123h-3.383Zm-4.113-8.7v9.72a4.56 4.56 0 0 1-1.269 3.305 5.127 5.127 0 0 1-3.421 1.416h-.471a5.344 5.344 0 0 1-3.737-1.27 4.516 4.516 0 0 1-1.415-3.484v-9.687h1.887v9.673a3.314 3.314 0 0 0 .848 2.532 3.297 3.297 0 0 0 4.881 0 3.314 3.314 0 0 0 .847-2.532v-9.673h1.85Zm-13.993 6.68c0-1.69-.339-2.987-1.019-3.89a3.35 3.35 0 0 0-2.854-1.36 3.301 3.301 0 0 0-2.807 1.36c-.682.903-1.034 2.162-1.056 3.777v1.052c0 1.643.344 2.932 1.033 3.867a3.628 3.628 0 0 0 5.661.08c.67-.888 1.014-2.153 1.033-3.81l.009-1.076Zm1.887.944a8.832 8.832 0 0 1-.703 3.668 5.338 5.338 0 0 1-2 2.389 5.512 5.512 0 0 1-8.02-2.36 8.421 8.421 0 0 1-.736-3.56v-1.058a8.766 8.766 0 0 1 .713-3.644 5.31 5.31 0 0 1 5.019-3.258 5.538 5.538 0 0 1 2.991.831 5.332 5.332 0 0 1 2.015 2.403c.491 1.16.73 2.41.703 3.668l.018.921Zm-20.705-.633h2.892a3.259 3.259 0 0 0 2.231-.727 2.46 2.46 0 0 0 .826-1.945 2.601 2.601 0 0 0-.788-2.034 3.343 3.343 0 0 0-2.279-.718h-2.882v5.424Zm3.35 1.549h-3.35v5.764h-1.887V39.495h4.717c1.614 0 2.831.368 3.713 1.105.882.736 1.297 1.798 1.297 3.2a3.883 3.883 0 0 1-.717 2.328 4.35 4.35 0 0 1-2.005 1.487l3.355 6.047v.118h-2.024l-3.1-5.745Zm-7.643 3.895a4.34 4.34 0 0 1-2.024 1.553 8.163 8.163 0 0 1-3.024.519 5.894 5.894 0 0 1-3.1-.821 5.442 5.442 0 0 1-2.094-2.332 8.111 8.111 0 0 1-.76-3.503V46.08c0-2.152.502-3.822 1.505-5.008 1.005-1.185 2.411-1.776 4.246-1.776a5.408 5.408 0 0 1 3.595 1.143 4.977 4.977 0 0 1 1.67 3.243H79.94c-.352-1.888-1.477-2.832-3.373-2.832a3.324 3.324 0 0 0-2.868 1.326c-.651.888-.977 2.172-.986 3.852v1.18a6.083 6.083 0 0 0 1.099 3.82 3.552 3.552 0 0 0 2.972 1.416 6.398 6.398 0 0 0 1.85-.236c.502-.136.957-.41 1.315-.788v-3.196h-3.302V46.67h5.19l-.024 5.259Z"/></svg><svg viewBox="0 0 20 18" id="parameters" xmlns="http://www.w3.org/2000/svg"><path d="M15.75 17.25c-1.05 0-1.938-.363-2.662-1.087C12.363 15.437 12 14.55 12 13.5c0-1.05.363-1.938 1.088-2.662.725-.725 1.612-1.088 2.662-1.088 1.05 0 1.938.363 2.663 1.088.724.725 1.087 1.612 1.087 2.662 0 1.05-.363 1.938-1.087 2.663-.726.724-1.613 1.087-2.663 1.087Zm0-2c.483 0 .896-.17 1.238-.512.341-.342.512-.755.512-1.238s-.17-.896-.512-1.238a1.686 1.686 0 0 0-1.238-.512c-.483 0-.896.17-1.238.512A1.686 1.686 0 0 0 14 13.5c0 .483.17.896.512 1.238a1.69 1.69 0 0 0 1.238.512ZM9 14.5H3a.967.967 0 0 1-.712-.287A.968.968 0 0 1 2 13.5a.97.97 0 0 1 .288-.713A.967.967 0 0 1 3 12.5h6c.283 0 .52.096.713.287.191.192.287.43.287.713s-.096.52-.287.713A.967.967 0 0 1 9 14.5ZM4.25 8.25c-1.05 0-1.938-.362-2.663-1.088C.863 6.438.5 5.55.5 4.5c0-1.05.363-1.938 1.087-2.663C2.313 1.113 3.2.75 4.25.75c1.05 0 1.938.363 2.662 1.087C7.638 2.563 8 3.45 8 4.5c0 1.05-.362 1.938-1.088 2.662C6.188 7.888 5.3 8.25 4.25 8.25Zm0-2c.483 0 .896-.17 1.237-.513A1.68 1.68 0 0 0 6 4.5c0-.483-.17-.896-.513-1.237A1.686 1.686 0 0 0 4.25 2.75c-.483 0-.896.17-1.237.513A1.686 1.686 0 0 0 2.5 4.5c0 .483.17.896.513 1.237.341.342.754.513 1.237.513ZM17 5.5h-6a.968.968 0 0 1-.713-.287A.967.967 0 0 1 10 4.5a.97.97 0 0 1 .287-.712A.968.968 0 0 1 11 3.5h6c.283 0 .52.096.712.288.192.191.288.429.288.712s-.096.52-.288.713A.968.968 0 0 1 17 5.5Z"/></svg><svg viewBox="0 0 34 34" id="photo_search" xmlns="http://www.w3.org/2000/svg"><path fill-rule="evenodd" clip-rule="evenodd" d="M33.667 12.833c0 6.904-5.597 12.5-12.5 12.5-2.886 0-5.544-.978-7.66-2.62-.08.168-.189.326-.328.465l-10 10a1.667 1.667 0 1 1-2.357-2.357l10-10c.14-.14.297-.249.466-.329a12.446 12.446 0 0 1-2.621-7.659c0-6.904 5.596-12.5 12.5-12.5 6.903 0 12.5 5.596 12.5 12.5Zm-3.334 0a9.167 9.167 0 1 0-18.333 0 9.167 9.167 0 0 0 18.334 0Zm-7.5-4.167a1.667 1.667 0 0 0-3.333 0v2.5H17a1.667 1.667 0 1 0 0 3.334h2.5V17a1.667 1.667 0 0 0 3.334 0v-2.5h2.5a1.667 1.667 0 1 0 0-3.334h-2.5v-2.5Z"/></svg><svg viewBox="0 0 54 54" id="player" xmlns="http://www.w3.org/2000/svg"><path d="M27 .333C41.728.333 53.667 12.272 53.667 27c0 14.728-11.939 26.666-26.667 26.666C12.272 53.666.333 41.728.333 27S12.273.333 27 .333Zm-8.096 17.733-.141 1.334-.08.888-.112 1.6-.064 1.226-.048 1.347-.027 1.464v1.541l.027 1.464.048 1.35.064 1.226.112 1.6.19 1.947.034.272a3.18 3.18 0 0 0 4.402 2.544l1.216-.539 1.737-.824 1.04-.522 1.146-.598 1.243-.674 1.328-.752 1.315-.774.615-.373 1.147-.72 1.035-.667.912-.61 1.741-1.227.472-.35a3.18 3.18 0 0 0-.002-5.087l-1.083-.792-.733-.515-.854-.581-1.507-.982-1.14-.714-1.254-.752-1.33-.768-1.276-.707-1.192-.635-1.093-.56-1.44-.701-1.17-.539-.614-.272a46.787 46.787 0 0 0-.253-.106 3.18 3.18 0 0 0-4.41 2.538Z"/></svg><svg viewBox="0 0 20 20" id="search" xmlns="http://www.w3.org/2000/svg"><path fill-rule="evenodd" clip-rule="evenodd" d="M8.5 0a8.5 8.5 0 1 0 5.262 15.176l3.652 3.652a1 1 0 0 0 1.414-1.414l-3.652-3.652A8.5 8.5 0 0 0 8.5 0ZM2 8.5a6.5 6.5 0 1 1 13 0 6.5 6.5 0 0 1-13 0Z"/></svg><svg class="ihidden" viewBox="0 0 0 0" id="sprite"/><svg viewBox="0 0 21 18" id="telegram" xmlns="http://www.w3.org/2000/svg"><path fill-rule="evenodd" clip-rule="evenodd" d="M18.777.43a1.5 1.5 0 0 1 2.062 1.626l-2.268 13.757c-.22 1.327-1.676 2.088-2.893 1.427-1.018-.553-2.53-1.405-3.89-2.294-.68-.445-2.763-1.87-2.507-2.884.22-.867 3.72-4.125 5.72-6.062.785-.761.427-1.2-.5-.5-2.302 1.738-5.998 4.381-7.22 5.125-1.078.656-1.64.768-2.312.656-1.226-.204-2.363-.52-3.29-.905C.423 9.856.484 8.132 1.676 7.63l17.1-7.2Z"/></svg><svg viewBox="0 0 16 16" id="tick" xmlns="http://www.w3.org/2000/svg"><path fill-rule="evenodd" clip-rule="evenodd" d="M.5 8a7.5 7.5 0 1 0 15 0 7.5 7.5 0 0 0-15 0Zm11.053-1.743a.75.75 0 0 0-1.106-1.014L6.902 9.111 5.576 7.52a.75.75 0 0 0-1.152.96l1.875 2.25a.75.75 0 0 0 1.129.027l4.125-4.5Z"/></svg><svg viewBox="0 0 18 18" id="vk" xmlns="http://www.w3.org/2000/svg"><path fill-rule="evenodd" clip-rule="evenodd" d="M4 0a4 4 0 0 0-4 4v10a4 4 0 0 0 4 4h10a4 4 0 0 0 4-4V4a4 4 0 0 0-4-4H4Zm10.332 7.055a1 1 0 0 0-1.664-1.11c-.354.47-.725.92-1.159 1.32-.503.464-1.012.812-1.508 1.018l-.008-1.9A1 1 0 0 0 9 5.5c-.542.031-1 .431-1 1v4.373c-1.948-.54-3-2.43-3-4.373a1 1 0 0 0-2 0C3 10.132 5.51 13 9 13a1 1 0 0 0 1-1v-1.563c1.332.106 2.624 1.047 3.106 2.01a1 1 0 1 0 1.788-.894c-.478-.957-1.37-1.852-2.468-2.436.148-.121.295-.249.44-.382a9.809 9.809 0 0 0 1.466-1.68Z"/></svg><svg viewBox="0 0 20 20" id="whatsapp" xmlns="http://www.w3.org/2000/svg"><path fill-rule="evenodd" clip-rule="evenodd" d="M10 0C4.477 0 0 4.477 0 10c0 1.89.525 3.66 1.438 5.168L.546 18.2A1.01 1.01 0 0 0 1.8 19.454l3.032-.892A9.957 9.957 0 0 0 10 20c5.523 0 10-4.477 10-10S15.523 0 10 0ZM7.738 12.263c2.023 2.022 3.954 2.289 4.636 2.314 1.037.038 2.047-.754 2.44-1.673a.696.696 0 0 0-.088-.703c-.548-.7-1.289-1.203-2.013-1.703a.711.711 0 0 0-.973.158l-.6.915a.229.229 0 0 1-.305.076c-.407-.233-1-.629-1.426-1.055-.426-.426-.798-.992-1.007-1.373a.227.227 0 0 1 .067-.291l.924-.686a.712.712 0 0 0 .12-.94c-.448-.656-.97-1.49-1.727-2.043a.695.695 0 0 0-.684-.075c-.92.394-1.716 1.404-1.678 2.443.025.682.292 2.613 2.314 4.636Z"/></svg><svg viewBox="0 0 20 16" id="youtube" xmlns="http://www.w3.org/2000/svg"><path fill-rule="evenodd" clip-rule="evenodd" d="M10 0c.855 0 1.732.022 2.582.058l1.004.048.961.057.9.061.822.064a3.802 3.802 0 0 1 3.494 3.423l.04.425.075.91C19.948 5.989 20 7.017 20 8c0 .983-.052 2.011-.122 2.954l-.075.91c-.013.146-.026.287-.04.425a3.802 3.802 0 0 1-3.495 3.423l-.82.063-.9.062-.962.057-1.004.048A61.58 61.58 0 0 1 10 16a61.58 61.58 0 0 1-2.582-.058l-1.004-.048-.961-.057-.9-.062-.822-.063a3.802 3.802 0 0 1-3.494-3.423l-.04-.425-.075-.91A40.662 40.662 0 0 1 0 8c0-.983.052-2.011.122-2.954l.075-.91c.013-.146.026-.287.04-.425A3.802 3.802 0 0 1 3.73.288l.821-.064.9-.061.962-.057L7.417.058C8.277.021 9.139.001 10 0ZM8 5.575v4.85c0 .462.5.75.9.52l4.2-2.425a.6.6 0 0 0 0-1.04L8.9 5.056a.6.6 0 0 0-.9.52v-.001Z"/></svg></svg>